<?xml version="1.0" standalone="no"?>
<!DOCTYPE svg PUBLIC "-//W3C//DTD SVG 20010904//EN"
 "http://www.w3.org/TR/2001/REC-SVG-20010904/DTD/svg10.dtd">
<svg version="1.0" xmlns="http://www.w3.org/2000/svg"
 width="1067.000000pt" height="1067.000000pt" viewBox="0 0 1067.000000 1067.000000"
 preserveAspectRatio="xMidYMid meet">
<metadata>
Created by potrace 1.14, written by Peter Selinger 2001-2017
</metadata>
<g transform="translate(0.000000,1067.000000) scale(0.100000,-0.100000)"
fill="#000000" stroke="none">
<path d="M4045 10468 c-5 -15 -45 -162 -45 -165 0 -2 0 -4 -1 -5 0 -2 -2 -10
-4 -18 -1 -8 -16 -69 -33 -135 -34 -137 -62 -259 -68 -295 -2 -14 -7 -36 -10
-50 -3 -14 -8 -38 -11 -55 -2 -16 -6 -41 -9 -55 -9 -50 -35 -196 -40 -225 -2
-16 -6 -41 -9 -55 -2 -14 -7 -47 -10 -75 -4 -27 -8 -63 -11 -80 -2 -16 -6 -54
-10 -83 -3 -29 -7 -61 -9 -70 -3 -20 -14 -116 -20 -187 -2 -27 -7 -79 -10
-115 -12 -132 -18 -229 -30 -510 -3 -74 -7 -178 -10 -230 -6 -115 -16 -395
-20 -543 -1 -59 -5 -110 -8 -113 -3 -3 -2 -16 3 -29 5 -13 6 -26 3 -29 -6 -6
-10 -114 -14 -434 -2 -150 -1 -164 18 -190 14 -19 34 -30 70 -37 28 -5 57 -15
64 -20 8 -6 30 -18 49 -28 42 -21 129 -103 170 -158 l28 -39 43 52 c54 66 55
66 105 106 23 17 47 32 53 32 6 0 11 3 11 8 0 9 35 24 110 47 82 26 82 26 80
156 -2 158 -7 327 -14 504 -4 83 -9 211 -12 285 -2 74 -7 200 -11 280 -3 80
-6 184 -7 232 -1 49 -3 88 -6 88 -3 0 -6 30 -6 68 -3 130 -22 392 -39 538 -3
24 -7 64 -10 88 -3 24 -8 71 -10 103 -3 32 -7 69 -10 82 -2 13 -7 49 -10 80
-4 31 -8 67 -11 81 -2 14 -6 43 -9 65 -7 55 -13 94 -19 135 -3 19 -8 51 -10
70 -6 45 -33 196 -51 285 -8 39 -16 84 -19 100 -9 49 -19 90 -52 230 -3 11 -6
25 -7 30 -2 6 -6 16 -10 23 -5 6 -6 12 -4 12 6 0 -46 173 -66 223 -17 39 -25
45 -32 25z m66 -390 c13 -51 24 -95 24 -98 1 -3 5 -25 9 -50 5 -25 10 -54 12
-65 16 -80 54 -314 53 -322 -1 -4 0 -11 1 -15 5 -17 9 -40 25 -168 12 -92 17
-129 20 -150 5 -27 15 -115 20 -170 13 -132 23 -215 25 -215 1 0 3 -29 5 -65
2 -36 6 -110 10 -165 3 -55 8 -134 10 -175 5 -69 9 -179 20 -435 2 -55 6 -156
9 -225 3 -69 8 -188 11 -265 3 -77 8 -180 10 -230 2 -49 7 -167 10 -260 l7
-171 -59 -45 c-32 -24 -60 -46 -63 -49 -15 -15 -173 -130 -179 -130 -4 0 -9
17 -10 38 -7 92 -8 3522 -1 3522 4 0 18 -42 31 -92z"/>
<path d="M6547 10390 c-22 -71 -44 -155 -63 -230 -2 -8 -10 -44 -19 -80 -9
-36 -28 -119 -41 -185 -27 -128 -29 -140 -44 -225 -6 -30 -12 -66 -15 -80 -3
-13 -7 -42 -10 -65 -3 -22 -12 -74 -19 -115 -8 -41 -14 -82 -14 -90 0 -8 -3
-30 -6 -48 -12 -78 -23 -164 -41 -324 -2 -24 -7 -65 -10 -93 -8 -75 -16 -184
-20 -293 -2 -53 -6 -146 -10 -207 -5 -105 -10 -213 -20 -465 -2 -63 -7 -178
-10 -255 -12 -292 -15 -407 -20 -658 -4 -248 -3 -258 16 -276 17 -15 61 -31
84 -30 3 0 33 -15 67 -33 60 -32 164 -124 203 -180 26 -36 39 -35 64 5 52 84
165 166 279 203 45 14 83 31 84 38 4 29 2 336 -2 336 -3 0 -5 57 -6 128 -1
121 -9 373 -19 567 -2 50 -7 155 -10 235 -2 80 -5 145 -5 145 -1 0 -3 43 -6
95 -2 52 -7 129 -9 170 -3 41 -7 111 -10 155 -2 44 -7 98 -9 120 -3 22 -8 72
-11 110 -5 67 -9 108 -21 205 -3 25 -7 65 -9 90 -3 25 -7 65 -10 90 -4 25 -8
59 -10 75 -2 17 -4 30 -5 30 -1 0 -3 18 -5 40 -4 42 -10 83 -21 150 -4 22 -8
47 -9 55 -9 61 -18 118 -22 135 -2 11 -6 35 -8 53 -2 18 -6 41 -9 50 -3 9 -8
32 -11 50 -3 18 -12 65 -21 105 -20 93 -19 90 -39 172 -9 39 -19 81 -21 94 -3
13 -9 32 -15 43 -5 10 -8 18 -5 18 5 0 -38 149 -53 185 -5 11 -13 31 -19 45
-8 23 -12 17 -35 -60z m67 -281 c8 -24 22 -78 31 -119 23 -101 23 -105 36
-180 23 -133 26 -150 22 -150 -2 0 -1 -5 3 -11 4 -7 8 -26 10 -43 1 -17 4 -40
7 -51 2 -11 8 -51 13 -90 4 -38 8 -72 9 -75 1 -6 11 -83 30 -235 4 -27 8 -68
11 -90 2 -22 6 -60 9 -85 16 -129 32 -321 40 -465 2 -44 7 -120 10 -170 3 -49
8 -139 10 -200 12 -299 16 -418 20 -505 2 -52 7 -160 10 -240 5 -143 10 -260
20 -472 l5 -107 -127 -99 c-148 -115 -181 -137 -190 -128 -3 3 -8 119 -9 256
-2 138 -6 255 -9 260 -3 5 -2 11 3 14 5 3 6 28 2 56 -4 27 -3 50 1 50 5 0 6 7
2 16 -8 22 -10 2153 -1 2167 4 6 4 15 1 20 -8 13 -8 136 0 143 4 4 2 14 -3 24
-5 10 -7 20 -4 23 8 8 8 122 0 135 -4 7 -4 12 1 12 4 0 8 92 8 204 0 113 3
199 7 192 4 -7 14 -32 22 -57z"/>
<path d="M5285 9243 c-20 -65 -39 -127 -42 -138 -4 -11 -8 -27 -9 -35 -2 -8
-10 -42 -19 -75 -8 -33 -22 -91 -31 -130 -8 -38 -18 -79 -20 -90 -3 -11 -7
-31 -10 -45 -2 -14 -9 -47 -14 -75 -16 -86 -22 -124 -35 -220 -2 -16 -4 -30
-5 -30 -2 0 -4 -19 -14 -110 -4 -38 -10 -85 -12 -103 -7 -60 -25 -255 -30
-332 -9 -153 -15 -276 -19 -435 -2 -99 -5 -180 -5 -180 -1 0 -2 -187 -3 -415
l-2 -415 -45 4 c-25 1 -46 4 -48 6 -4 4 -10 36 -17 101 -6 58 -12 98 -20 159
-2 17 -6 53 -9 80 -3 28 -8 66 -12 85 -5 35 -12 74 -19 120 -2 14 -9 57 -15
95 -7 39 -14 84 -16 100 -3 17 -9 50 -15 75 -5 25 -12 59 -14 75 -6 38 -30
134 -41 159 -6 17 -10 14 -21 -20 -14 -39 -47 -177 -64 -269 -5 -27 -11 -61
-14 -75 -4 -22 -18 -100 -31 -170 -2 -14 -7 -45 -10 -70 -3 -25 -8 -47 -9 -50
-3 -4 -17 -128 -17 -150 -1 -37 7 -49 55 -78 125 -76 188 -167 203 -293 10
-89 6 -194 -10 -274 -7 -32 -19 -54 -32 -59 -8 -3 -43 6 -76 20 -34 14 -85 28
-114 31 -51 5 -53 5 -60 -21 -13 -53 19 -157 63 -203 6 -7 20 -23 30 -36 24
-31 85 -74 101 -71 6 1 17 2 22 3 36 4 180 180 180 220 0 23 36 45 47 28 11
-17 12 -26 17 -193 3 -82 8 -158 12 -167 3 -9 16 -19 27 -23 68 -20 119 -53
180 -116 37 -38 67 -75 67 -81 1 -15 35 -57 48 -57 5 0 17 18 27 40 31 69 146
177 230 215 22 10 42 20 44 22 2 1 5 74 6 160 1 87 5 168 9 181 12 36 36 23
73 -40 40 -68 125 -163 165 -184 26 -13 32 -14 51 -1 93 62 171 182 171 265 1
62 -21 75 -89 56 -27 -8 -54 -16 -60 -17 -5 -1 -15 -6 -21 -9 -6 -4 -21 -9
-35 -11 -13 -3 -28 -6 -34 -7 -26 -6 -34 4 -45 52 -26 106 -15 315 19 394 23
51 111 143 162 169 61 31 68 42 63 94 -3 25 -7 66 -9 91 -2 25 -5 46 -6 48 -3
4 -5 16 -13 73 -4 31 -21 126 -37 210 -17 85 -32 165 -34 179 -5 42 -47 194
-56 204 -6 6 -9 4 -10 -5 -1 -19 -4 -32 -23 -104 -18 -71 -45 -196 -52 -245
-3 -19 -9 -57 -14 -85 -16 -85 -20 -108 -26 -164 -3 -30 -8 -64 -10 -75 -2
-12 -6 -41 -9 -66 -3 -25 -8 -61 -11 -80 -3 -19 -7 -60 -10 -90 -2 -30 -7 -68
-11 -85 -3 -16 -5 -38 -5 -47 0 -10 -7 -18 -16 -19 -9 0 -25 -2 -34 -4 -10 -2
-21 1 -24 7 -4 6 -8 213 -10 462 -2 248 -6 494 -9 546 -10 210 -21 371 -30
445 -3 22 -7 69 -10 105 -3 36 -8 79 -11 95 -3 17 -7 55 -9 85 -2 30 -5 55 -5
55 -3 0 -7 29 -14 83 -10 81 -16 122 -27 181 -6 30 -12 64 -14 75 -7 56 -18
121 -29 166 -3 14 -8 36 -10 50 -4 23 -34 163 -40 185 -13 48 -16 63 -20 85
-18 101 -84 320 -96 320 -5 0 -25 -53 -45 -117z m70 -189 c2 -11 4 -19 5 -19
1 0 3 -8 5 -19 2 -10 9 -41 16 -70 7 -28 14 -60 15 -71 1 -11 3 -20 4 -20 1 0
3 -9 5 -20 2 -11 7 -36 10 -55 8 -40 11 -60 19 -110 3 -19 8 -46 11 -60 3 -14
7 -45 10 -69 3 -25 7 -54 10 -65 2 -12 6 -37 9 -56 3 -19 7 -55 11 -80 9 -69
14 -110 20 -175 4 -33 8 -71 11 -85 2 -14 6 -50 9 -80 3 -30 8 -68 10 -85 4
-35 15 -160 19 -228 2 -26 6 -50 9 -53 3 -4 2 -16 -3 -29 -5 -13 -6 -26 -2
-29 3 -4 7 -46 8 -94 10 -425 14 -565 19 -572 3 -5 1 -11 -5 -15 -6 -4 -7 -12
-3 -18 4 -7 8 -281 9 -610 l3 -598 -27 -22 c-24 -20 -78 -69 -157 -141 -65
-60 -65 -60 -66 71 0 65 -3 357 -5 648 -6 675 -10 2673 -6 2784 2 55 7 80 13
74 6 -6 12 -19 14 -29z"/>
<path d="M4386 6539 c-16 -4 -33 -6 -38 -3 -4 3 -8 1 -8 -3 0 -5 -15 -14 -34
-21 -40 -15 -111 -84 -137 -134 -18 -35 -22 -50 -34 -138 -2 -19 -6 -44 -9
-55 -2 -11 -5 -25 -5 -32 -2 -22 -33 -43 -61 -41 -35 3 -54 39 -56 108 -1 25
-3 45 -4 45 -1 0 -3 13 -5 28 -10 73 -82 170 -154 206 -111 56 -261 35 -350
-50 -71 -66 -132 -235 -102 -279 7 -11 29 -15 76 -15 36 0 65 -2 65 -5 0 -3
24 -5 53 -6 32 0 71 -10 102 -24 53 -26 162 -128 187 -176 8 -16 24 -46 36
-67 32 -55 28 -77 -20 -117 -96 -80 -100 -87 -100 -145 -1 -94 100 -363 187
-504 44 -70 172 -239 215 -281 8 -9 34 -36 58 -61 l43 -45 -68 -70 c-105 -109
-176 -197 -208 -260 -26 -52 -30 -69 -30 -144 0 -68 5 -93 22 -126 49 -92 138
-141 238 -131 56 6 152 49 161 72 3 8 -10 59 -28 113 -28 81 -34 110 -32 165
3 70 41 169 82 216 20 22 24 23 54 10 18 -7 38 -14 43 -15 6 -1 77 -32 160
-69 162 -73 205 -85 221 -63 17 21 45 98 50 136 5 43 -5 52 -91 81 -82 28
-265 120 -265 132 0 5 -7 9 -15 9 -8 0 -15 5 -15 10 0 6 -5 10 -11 10 -6 0
-17 6 -24 13 -8 6 -44 39 -82 72 -37 33 -93 88 -123 123 -30 35 -65 73 -77 84
-13 12 -23 28 -23 35 0 7 -4 13 -8 13 -5 0 -15 12 -23 28 -8 15 -17 29 -20 32
-3 3 -28 50 -56 105 -46 91 -93 217 -93 250 0 22 30 45 58 45 35 -1 55 -17 72
-60 7 -19 17 -39 22 -45 4 -5 8 -15 8 -22 0 -13 69 -161 92 -198 42 -66 124
-168 175 -216 51 -49 183 -152 238 -186 131 -81 244 -131 265 -118 12 8 -4
174 -18 185 -24 18 -153 100 -158 100 -6 0 -89 57 -110 75 -7 6 -37 31 -67 58
-95 82 -174 200 -219 327 -18 51 -22 68 -32 125 -2 11 -7 36 -11 55 -9 51 -13
74 -14 81 -1 4 -22 14 -48 23 -106 39 -104 37 -97 60 13 41 80 140 131 193 30
32 74 64 110 80 53 25 69 27 188 27 l130 1 0 75 c0 61 -5 85 -27 131 -29 59
-94 130 -141 154 -61 31 -146 47 -191 34z"/>
<path d="M6170 6543 c-15 -4 -42 -16 -90 -37 -37 -17 -122 -106 -148 -156 -27
-51 -38 -121 -28 -174 l7 -36 127 0 c70 0 138 -2 150 -4 33 -7 101 -48 143
-88 37 -35 99 -120 99 -136 0 -5 7 -15 15 -22 8 -7 13 -16 10 -20 -3 -5 -1
-11 5 -15 21 -13 9 -33 -30 -50 -23 -10 -47 -18 -55 -18 -8 0 -15 -4 -15 -9 0
-4 -7 -8 -15 -8 -21 0 -32 -27 -38 -95 -3 -33 -13 -85 -22 -115 -21 -69 -85
-210 -97 -210 -4 0 -8 -5 -8 -11 0 -30 -191 -233 -234 -248 -6 -2 -13 -7 -16
-10 -9 -11 -85 -58 -135 -84 -54 -27 -87 -58 -92 -85 -28 -155 -20 -186 41
-152 17 10 42 21 55 25 23 7 183 98 206 117 5 5 35 27 65 49 112 81 235 215
306 334 30 49 114 237 114 254 0 5 9 20 21 35 23 29 69 35 89 11 26 -32 -10
-178 -71 -291 -18 -33 -35 -61 -38 -64 -3 -3 -12 -17 -20 -32 -8 -15 -22 -37
-33 -47 -10 -11 -18 -22 -18 -25 0 -14 -205 -228 -290 -301 -44 -39 -120 -89
-173 -116 -38 -20 -159 -68 -182 -73 -5 -1 -27 -10 -48 -19 -36 -15 -38 -19
-34 -49 16 -100 55 -162 98 -154 13 2 24 5 24 6 0 1 7 3 15 5 8 2 61 24 116
49 56 25 106 46 113 46 6 0 11 3 11 8 0 9 63 32 108 39 38 6 54 -5 82 -59 56
-108 60 -178 16 -326 -16 -52 -25 -104 -22 -116 4 -16 22 -31 53 -46 88 -41
152 -43 228 -5 160 78 186 263 63 443 -17 26 -35 49 -40 50 -4 2 -8 9 -8 16 0
8 -41 54 -91 104 -50 50 -89 95 -87 101 1 5 30 38 63 73 33 35 76 83 95 107
19 24 40 48 46 55 32 34 131 192 164 261 45 95 115 300 125 368 10 65 -5 94
-75 145 -90 66 -89 59 -34 159 54 95 139 191 194 216 70 31 102 37 223 38 l98
2 -2 61 c-1 33 -5 68 -9 76 -49 110 -110 185 -173 215 -61 28 -132 35 -214 20
-34 -6 -112 -53 -140 -84 -27 -31 -75 -126 -80 -161 -2 -14 -5 -46 -7 -72 -4
-60 -27 -96 -58 -93 -13 1 -28 3 -34 4 -17 2 -27 30 -30 91 -8 135 -58 230
-153 288 -28 18 -51 30 -51 27 0 -2 -12 0 -27 6 -30 12 -99 18 -123 12z"/>
<path d="M4790 5453 c-50 -14 -170 -105 -170 -129 0 -8 4 -13 9 -9 5 3 13 0
16 -5 4 -6 17 -10 28 -8 12 1 28 -1 35 -5 6 -5 12 -6 12 -3 0 9 113 -35 145
-57 61 -41 159 -167 166 -212 0 -5 5 -18 10 -27 42 -78 63 -291 45 -456 -16
-157 -116 -288 -189 -250 -12 6 -19 5 -23 -5 -9 -24 27 -118 58 -153 32 -36
55 -43 159 -48 36 -1 70 -6 76 -9 14 -9 7 -36 -27 -112 -52 -117 -98 -147
-190 -126 -54 12 -71 0 -77 -51 -1 -18 -5 -45 -7 -59 -3 -24 0 -27 33 -33 20
-3 50 -8 66 -11 53 -9 110 -26 126 -38 26 -20 49 -73 105 -244 54 -165 120
-323 135 -323 10 0 37 51 49 89 5 14 20 58 35 96 21 57 75 214 80 235 21 83
71 158 110 165 11 2 21 4 23 5 7 7 115 22 123 18 4 -2 16 6 28 16 21 19 21 23
6 96 -5 27 -33 53 -46 44 -5 -3 -19 -8 -31 -11 -75 -17 -135 19 -175 105 -14
31 -30 65 -34 74 -11 22 -12 68 -1 69 4 1 41 2 82 3 85 3 127 20 160 67 20 26
50 107 50 130 0 5 -21 8 -46 7 -41 0 -50 4 -81 37 -38 41 -72 108 -78 151 -2
16 -4 29 -5 29 -11 0 -16 240 -6 310 20 144 81 286 158 370 35 39 128 90 183
101 22 5 42 9 45 9 3 1 22 5 43 9 20 5 37 13 37 18 0 9 -51 61 -100 102 -34
27 -77 37 -155 35 -96 -3 -205 -34 -205 -59 0 -6 -5 -10 -11 -10 -20 0 -100
-95 -129 -155 -17 -33 -32 -84 -35 -113 -8 -78 -36 -122 -78 -122 -39 0 -59
33 -72 120 -9 65 -14 80 -42 132 -33 61 -93 125 -148 160 -70 43 -201 63 -275
41z"/>
<path d="M2986 5308 c-9 -5 -16 -6 -16 -3 0 3 -15 -2 -32 -11 -34 -17 -81 -65
-73 -73 3 -2 0 -11 -7 -18 -21 -26 -20 -212 2 -290 10 -37 32 -117 49 -178 17
-60 34 -130 37 -155 4 -24 8 -56 10 -70 5 -42 5 -163 -1 -195 -14 -75 -18 -91
-27 -102 -6 -7 -8 -13 -4 -13 3 0 -5 -21 -19 -47 -36 -67 -46 -81 -82 -121
-17 -20 -30 -40 -27 -44 3 -4 2 -8 -3 -8 -4 0 -8 -47 -7 -105 0 -57 -2 -108
-5 -113 -4 -7 -473 -166 -521 -177 -30 -8 -67 -19 -75 -24 -5 -3 -17 -7 -25
-9 -18 -3 -30 -7 -50 -15 -19 -7 -362 -118 -375 -122 -5 -1 -17 -5 -25 -8 -29
-11 -145 -48 -165 -52 -11 -2 -53 -16 -94 -30 -88 -29 -87 -29 -67 -10 8 8 19
15 24 15 6 0 12 4 14 8 2 5 30 23 63 42 33 18 62 37 65 40 3 4 25 17 50 31 25
13 47 27 50 30 3 4 23 16 45 28 22 11 103 59 179 106 77 47 141 85 142 85 2 0
20 12 41 26 21 14 47 30 58 35 26 11 419 251 510 311 97 64 153 115 177 162
19 36 21 58 20 192 -1 161 -7 199 -48 321 -14 43 -28 86 -30 96 -2 10 -6 27
-9 37 -7 23 -14 55 -20 100 -11 74 -15 83 -30 70 -28 -23 -52 -121 -49 -200 1
-41 5 -85 8 -97 3 -13 8 -31 10 -40 3 -10 9 -33 15 -50 5 -18 7 -33 4 -33 -3
0 0 -7 7 -15 7 -8 10 -15 7 -15 -3 0 -1 -17 4 -37 13 -57 21 -144 15 -169 -5
-20 -11 -22 -57 -18 -28 2 -78 13 -111 25 -67 22 -80 20 -123 -17 -54 -46
-148 -129 -169 -149 -23 -21 -62 -56 -210 -190 -48 -44 -101 -91 -116 -105
-15 -14 -59 -54 -99 -89 -39 -35 -87 -78 -105 -95 -49 -45 -195 -178 -218
-198 -23 -20 -147 -131 -188 -168 -15 -14 -61 -56 -101 -92 -152 -137 -189
-174 -183 -181 4 -4 12 -3 18 2 6 4 22 11 36 14 14 3 50 13 80 22 30 9 60 17
65 19 6 2 17 6 25 9 8 3 96 31 195 62 99 31 198 63 220 70 22 8 101 33 175 55
74 23 169 53 210 67 41 14 82 26 90 28 8 2 27 8 41 13 15 6 30 8 33 5 3 -4 6
-2 6 4 0 5 6 10 13 10 11 0 143 41 397 123 47 15 119 38 160 50 41 13 78 26
82 29 3 3 8 20 11 36 14 90 20 107 41 115 11 4 28 6 36 5 8 -1 37 -6 64 -10
102 -14 274 -84 356 -144 64 -48 145 -146 199 -244 53 -96 44 -131 -48 -183
-45 -25 -175 -66 -184 -58 -2 2 -11 -13 -20 -33 -17 -40 -39 -94 -42 -103 -4
-17 -48 -149 -55 -165 -5 -11 -15 -42 -24 -70 -22 -74 -96 -308 -103 -325 -3
-8 -7 -20 -9 -27 -2 -13 -72 -228 -81 -253 -3 -8 -7 -20 -8 -26 -2 -7 -12 -38
-23 -70 -29 -85 -152 -467 -154 -479 0 -5 -8 -26 -16 -44 -7 -19 -15 -42 -17
-50 -2 -9 -19 -67 -40 -128 -20 -62 -37 -116 -37 -120 -1 -5 -12 -39 -25 -78
-13 -38 -27 -81 -29 -94 -3 -13 -9 -31 -13 -40 -5 -9 -11 -32 -14 -51 l-7 -35
21 24 c11 13 50 58 87 99 102 114 106 119 122 139 9 10 45 52 81 93 36 41 75
86 86 100 59 69 161 185 193 219 22 23 93 105 153 175 10 12 32 37 50 57 32
35 136 154 170 193 25 29 109 125 127 146 13 15 128 144 155 174 6 6 37 43 70
81 33 39 65 75 71 80 6 6 34 37 62 71 50 58 62 86 43 98 -14 9 -40 113 -47
192 -7 82 23 107 171 140 17 4 98 8 180 10 193 3 265 -14 407 -100 128 -78
208 -156 208 -204 0 -35 -78 -136 -154 -198 -42 -35 -47 -51 -36 -119 22 -129
22 -129 34 -182 2 -10 16 -79 31 -153 30 -152 33 -165 40 -200 4 -14 8 -36 11
-50 2 -14 11 -54 19 -90 8 -36 16 -78 19 -95 8 -44 12 -62 36 -171 12 -55 23
-110 25 -124 3 -14 6 -34 9 -45 8 -36 35 -160 39 -185 3 -14 8 -36 11 -50 3
-14 8 -37 11 -52 7 -37 14 -72 21 -105 3 -16 8 -41 11 -58 2 -16 7 -37 10 -45
6 -16 10 -37 16 -81 2 -14 6 -30 9 -35 3 -5 9 -30 12 -56 4 -26 9 -53 11 -60
2 -7 6 -24 9 -38 2 -14 11 -57 20 -95 8 -39 17 -82 20 -95 2 -14 12 -59 21
-100 9 -41 19 -92 22 -112 7 -50 19 -48 28 5 4 23 9 47 10 52 7 29 58 283 61
300 1 11 3 20 4 20 2 0 8 28 14 65 3 14 7 36 10 50 17 80 58 278 61 295 5 35
15 83 31 152 19 81 21 89 28 139 4 22 11 55 16 74 5 19 11 49 13 65 3 17 12
62 21 100 8 39 18 81 20 95 3 14 7 36 10 50 3 14 15 70 26 125 11 55 22 109
24 120 3 11 9 40 15 65 5 25 12 58 15 74 3 16 10 52 16 80 5 28 12 62 14 76 3
14 5 25 6 25 2 0 6 18 13 60 3 17 10 50 15 75 12 52 21 92 28 135 3 17 7 33 7
37 1 4 -36 44 -83 90 -90 88 -127 149 -116 192 3 13 25 43 48 66 56 58 230
170 262 170 8 0 16 4 18 8 2 5 30 16 63 25 47 13 89 16 200 13 218 -7 312 -24
350 -66 30 -33 23 -139 -15 -247 -11 -32 -20 -60 -20 -64 0 -7 169 -202 305
-353 6 -6 39 -45 75 -86 36 -41 69 -80 75 -86 5 -6 35 -40 65 -74 30 -35 66
-76 80 -91 22 -23 42 -47 133 -153 10 -11 31 -35 45 -51 15 -17 56 -64 92
-105 36 -41 70 -79 76 -85 5 -5 57 -64 115 -130 57 -66 113 -129 124 -141 11
-12 40 -45 65 -73 82 -94 154 -174 203 -225 l47 -50 -15 49 c-9 28 -23 75 -31
105 -8 30 -17 62 -21 70 -3 8 -7 17 -8 20 -1 3 -4 12 -7 20 -9 26 -63 195 -63
200 -1 8 -75 234 -117 360 -22 63 -41 125 -44 137 -2 13 -15 53 -28 90 -13 38
-34 102 -46 143 -12 41 -28 89 -35 105 -7 17 -16 46 -20 65 -4 19 -11 41 -16
50 -6 13 -132 402 -161 500 -6 19 -14 44 -19 55 -4 11 -21 63 -38 115 l-31 96
-37 2 c-20 2 -41 6 -47 10 -6 3 -20 8 -31 9 -29 5 -117 49 -144 72 -37 33 -31
81 23 173 49 81 112 157 172 206 124 102 432 198 480 151 8 -9 19 -41 24 -72
11 -71 13 -74 53 -82 17 -4 37 -10 42 -13 6 -4 15 -7 20 -8 6 -1 91 -28 190
-59 99 -31 187 -59 195 -60 8 -2 16 -4 18 -5 1 -2 7 -4 12 -5 6 -1 12 -4 15
-5 3 -1 8 -3 13 -4 4 -1 54 -17 111 -35 57 -18 109 -34 115 -35 6 -1 16 -4 21
-7 9 -5 150 -51 165 -54 3 0 21 -6 40 -12 19 -6 130 -41 245 -78 116 -37 227
-73 248 -81 20 -7 39 -14 42 -14 3 0 7 -1 10 -1 3 -1 8 -2 13 -3 4 -1 68 -22
142 -45 74 -23 144 -45 155 -48 13 -3 1 13 -32 46 -29 28 -55 51 -58 51 -2 0
-17 13 -32 28 -16 16 -73 69 -128 118 -55 49 -110 98 -121 109 -41 39 -179
164 -204 185 -14 12 -59 52 -100 90 -41 38 -84 77 -96 87 -45 39 -189 170
-232 211 -24 23 -47 42 -50 42 -2 0 -14 10 -26 23 -24 24 -89 83 -210 192 -43
39 -92 83 -110 98 -24 22 -37 27 -61 23 -38 -7 -48 -10 -60 -18 -13 -8 -91
-21 -133 -23 l-33 -1 2 60 c1 34 13 111 27 171 13 61 31 142 39 180 13 58 13
81 4 134 -13 70 -50 157 -61 144 -4 -4 -10 -33 -13 -63 -5 -57 -36 -182 -61
-247 -15 -37 -33 -104 -43 -153 -7 -33 -7 -188 0 -220 12 -59 59 -132 81 -125
6 3 22 7 36 9 30 6 42 9 146 37 l81 22 44 -31 c24 -17 65 -50 91 -74 25 -24
55 -50 65 -58 10 -9 43 -38 73 -64 158 -140 195 -173 221 -196 64 -58 166
-150 189 -170 22 -19 117 -104 190 -170 16 -14 61 -54 101 -90 40 -36 97 -89
128 -118 l56 -53 -75 39 c-41 22 -120 63 -175 92 -160 84 -249 132 -262 143
-7 5 -13 6 -13 2 0 -5 -8 -2 -17 6 -10 8 -49 30 -88 49 -38 19 -72 37 -75 40
-3 3 -25 15 -50 27 -72 36 -462 243 -515 274 -16 10 -52 30 -80 45 -210 113
-306 269 -291 473 8 120 11 131 57 294 48 169 58 224 55 312 -5 166 -62 218
-235 218 -110 0 -163 -8 -206 -31 -45 -25 -138 -93 -158 -115 -20 -23 -22 -19
59 -103 46 -48 87 -119 103 -180 10 -37 24 -138 23 -159 -1 -5 -4 -39 -7 -75
-3 -36 -6 -73 -6 -82 0 -10 -5 -20 -10 -23 -5 -4 -7 -10 -4 -15 8 -13 -50
-174 -87 -238 -43 -77 -111 -176 -208 -301 -44 -58 -80 -108 -80 -111 0 -3 -8
-15 -18 -26 -25 -27 -105 -166 -105 -181 0 -7 -4 -13 -9 -13 -4 0 -8 -8 -8
-18 0 -10 -3 -22 -7 -26 -4 -3 -8 -12 -9 -19 -2 -7 -7 -34 -13 -62 -12 -59 -7
-229 7 -265 15 -39 87 -69 302 -125 8 -2 45 -13 81 -24 l65 -21 19 -57 c10
-32 20 -60 20 -63 1 -3 5 -12 8 -20 3 -8 18 -51 32 -95 15 -44 29 -87 32 -95
13 -33 133 -386 137 -400 5 -16 94 -285 103 -310 3 -8 7 -19 9 -25 1 -5 34
-104 74 -220 39 -115 73 -217 75 -225 2 -8 19 -63 39 -121 43 -127 45 -150 9
-89 -15 25 -26 46 -25 47 1 2 -10 15 -23 29 -14 15 -25 30 -25 35 0 4 -23 42
-50 83 -28 42 -50 78 -50 80 0 3 -13 25 -29 48 -16 24 -44 68 -64 98 -138 220
-184 293 -197 315 -8 14 -76 123 -150 242 -74 120 -136 223 -138 230 -2 7 -8
13 -13 13 -5 0 -9 7 -9 15 0 8 -4 15 -10 15 -5 0 -10 4 -10 9 0 5 -29 55 -65
112 -35 57 -80 131 -100 164 -44 75 -53 90 -87 142 -16 23 -28 46 -28 51 0 5
-7 15 -15 22 -9 7 -13 15 -10 18 3 3 1 10 -4 16 -37 45 -45 272 -16 426 15 73
94 266 125 303 6 7 34 44 62 82 29 39 56 75 60 80 5 6 29 37 54 70 25 33 51
68 59 78 8 9 15 22 15 27 0 6 4 10 9 10 5 0 11 8 15 18 7 22 63 121 79 140 6
8 11 18 11 21 -2 7 5 29 16 56 19 43 42 122 45 155 2 19 5 37 6 40 1 3 1 25 0
50 -2 88 -51 209 -105 259 -22 21 -32 23 -83 18 -71 -7 -128 -27 -181 -62 -47
-31 -58 -56 -61 -140 -6 -159 -8 -171 -39 -235 -39 -82 -47 -116 -34 -143 21
-44 35 -119 35 -187 0 -58 -5 -80 -33 -136 -27 -56 -130 -179 -130 -157 0 5
-4 3 -8 -3 -8 -12 -73 -43 -105 -50 -56 -13 -138 -17 -193 -11 -48 5 -67 14
-154 74 -66 43 -66 44 -105 29 -55 -19 -146 -63 -168 -80 -12 -9 -16 -22 -13
-37 19 -83 21 -206 4 -226 -14 -17 -131 -73 -166 -80 -41 -8 -45 -9 -67 -16
-32 -11 -51 -53 -85 -182 -33 -126 -85 -270 -107 -296 -7 -8 -13 -19 -13 -24
0 -5 -19 -37 -41 -72 l-42 -64 24 -26 c13 -15 86 -87 162 -162 184 -181 182
-177 168 -251 -7 -33 -14 -72 -16 -87 -2 -15 -11 -62 -20 -103 -9 -41 -19 -86
-21 -100 -3 -14 -11 -56 -20 -95 -8 -38 -16 -80 -18 -91 -3 -12 -14 -64 -25
-115 -11 -52 -23 -109 -26 -128 -3 -19 -8 -37 -10 -40 -2 -4 -6 -26 -10 -51
-4 -25 -8 -47 -11 -51 -2 -3 -6 -25 -9 -49 -3 -23 -7 -46 -10 -50 -3 -4 -8
-25 -11 -46 -8 -48 -12 -69 -14 -69 -1 0 -3 -9 -5 -20 -3 -21 -11 -64 -20
-105 -6 -25 -11 -51 -19 -92 -3 -13 -10 -48 -17 -78 -6 -30 -12 -65 -13 -77 0
-13 -5 -23 -10 -23 -5 0 -7 -2 -4 -5 3 -4 1 -25 -4 -48 -5 -23 -12 -53 -14
-67 -3 -14 -10 -45 -15 -70 -13 -56 -12 -52 -39 -188 -13 -62 -25 -110 -28
-107 -3 3 -7 534 -7 1181 l-2 1174 -29 33 c-16 17 -31 34 -35 37 -67 63 -169
299 -200 464 -17 90 -43 131 -93 147 -22 7 -52 14 -65 16 -35 6 -102 40 -136
70 -27 24 -30 32 -29 87 0 34 3 72 6 86 24 96 29 86 -58 127 -44 20 -81 37
-84 38 -3 0 -16 7 -30 15 -14 7 -26 13 -28 12 -1 -1 -17 -9 -34 -18 -18 -9
-38 -22 -45 -28 -13 -12 -24 -21 -65 -52 -24 -19 -38 -21 -154 -18 -119 2
-131 4 -190 34 -72 35 -135 100 -170 175 -28 61 -37 103 -35 175 1 66 2 69 26
143 l18 58 -38 77 c-39 79 -41 93 -49 272 -1 36 -9 75 -16 87 -8 13 -48 40
-89 60 -63 33 -84 38 -140 38 -54 0 -70 -4 -86 -21 -23 -24 -43 -52 -51 -74
-3 -8 -10 -24 -14 -35 -31 -70 -40 -192 -21 -270 23 -94 30 -115 63 -185 29
-63 168 -284 188 -300 12 -10 118 -146 148 -191 64 -95 131 -248 149 -344 6
-29 7 -189 3 -410 -2 -91 2 -150 10 -150 1 0 3 -7 5 -15 2 -8 22 -63 44 -123
23 -59 41 -113 41 -120 0 -7 -8 -22 -17 -33 -10 -10 -34 -39 -54 -64 -20 -25
-47 -56 -58 -70 -12 -14 -32 -36 -43 -50 -39 -45 -203 -235 -213 -246 -5 -6
-37 -41 -70 -79 -33 -37 -65 -73 -70 -79 -26 -29 -252 -284 -270 -305 -11 -14
-37 -42 -57 -64 -21 -22 -38 -41 -38 -43 0 -2 -8 -12 -17 -22 -18 -18 -61 -66
-168 -188 -33 -37 -82 -91 -108 -118 l-49 -51 35 65 c37 71 120 220 153 279
11 20 40 72 64 116 23 44 47 86 53 93 6 7 20 32 32 55 30 59 66 124 97 177 61
104 90 157 105 190 8 19 19 37 23 40 4 3 23 34 42 70 29 55 79 147 122 225 6
11 13 22 16 25 3 3 11 16 17 30 7 14 26 50 44 80 17 30 47 84 66 120 131 242
138 258 149 362 17 153 8 281 -25 363 -28 70 -134 250 -161 275 -19 18 -190
251 -190 260 0 5 -4 10 -9 10 -5 0 -13 9 -16 20 -3 11 -12 26 -20 33 -36 37
-118 235 -133 321 -8 48 -7 266 1 314 11 61 56 142 111 198 75 75 78 81 50
110 -49 48 -172 124 -203 124 -10 0 -21 3 -25 7 -10 10 -202 11 -220 1z"/>
</g>
</svg>
