<svg width="4803" height="19" viewBox="0 0 4803 19" fill="none" xmlns="http://www.w3.org/2000/svg">
<line x1="-5.01274e-09" y1="0.499985" x2="4803" y2="0.499937" stroke="#454138"/>
<rect x="22.8802" y="14.5" width="5.12251" height="4.49997" fill="#454138"/>
<rect y="1.00009" width="10.245" height="2.99998" fill="#454138"/>
<rect x="40.9803" y="1.00006" width="10.245" height="2.99998" fill="#454138"/>
<rect x="17.7579" y="5.50002" width="5.12251" height="4.49997" fill="#454138"/>
<rect x="28.0032" y="5.50002" width="5.12251" height="4.49997" fill="#454138"/>
<rect x="63.8605" y="14.5" width="5.12251" height="4.49997" fill="#454138"/>
<rect x="40.9803" y="1.00006" width="10.245" height="2.99998" fill="#454138"/>
<rect x="81.9602" y="1.00006" width="10.245" height="2.99998" fill="#454138"/>
<rect x="58.7382" y="5.50002" width="5.12251" height="4.49997" fill="#454138"/>
<rect x="68.9832" y="5.50002" width="5.12251" height="4.49997" fill="#454138"/>
<rect x="104.841" y="14.5" width="5.12251" height="4.49997" fill="#454138"/>
<rect x="81.96" y="1.00006" width="10.245" height="2.99998" fill="#454138"/>
<rect x="122.94" y="1.00006" width="10.245" height="2.99998" fill="#454138"/>
<rect x="99.7181" y="5.50002" width="5.12251" height="4.49997" fill="#454138"/>
<rect x="109.963" y="5.50002" width="5.12251" height="4.49997" fill="#454138"/>
<rect x="145.821" y="14.5" width="5.12251" height="4.49997" fill="#454138"/>
<rect x="122.94" y="1.00006" width="10.245" height="2.99998" fill="#454138"/>
<rect x="163.92" y="1.00006" width="10.245" height="2.99998" fill="#454138"/>
<rect x="140.698" y="5.50002" width="5.12251" height="4.49997" fill="#454138"/>
<rect x="150.943" y="5.50002" width="5.12251" height="4.49997" fill="#454138"/>
<rect x="186.801" y="14.5" width="5.12251" height="4.49997" fill="#454138"/>
<rect x="163.92" y="1.00006" width="10.245" height="2.99998" fill="#454138"/>
<rect x="204.9" y="1.00006" width="10.245" height="2.99998" fill="#454138"/>
<rect x="181.678" y="5.50002" width="5.12251" height="4.49997" fill="#454138"/>
<rect x="191.924" y="5.50002" width="5.12251" height="4.49997" fill="#454138"/>
<rect x="227.781" y="14.5" width="5.12251" height="4.49997" fill="#454138"/>
<rect x="204.9" y="1.00006" width="10.245" height="2.99998" fill="#454138"/>
<rect x="245.881" y="1.00006" width="10.245" height="2.99998" fill="#454138"/>
<rect x="222.659" y="5.50002" width="5.12251" height="4.49997" fill="#454138"/>
<rect x="232.903" y="5.50002" width="5.12251" height="4.49997" fill="#454138"/>
<rect x="268.761" y="14.5" width="5.12251" height="4.49997" fill="#454138"/>
<rect x="245.88" y="1.00006" width="10.245" height="2.99998" fill="#454138"/>
<rect x="286.861" y="1.00006" width="10.245" height="2.99998" fill="#454138"/>
<rect x="263.638" y="5.50002" width="5.12251" height="4.49997" fill="#454138"/>
<rect x="273.884" y="5.50002" width="5.12251" height="4.49997" fill="#454138"/>
<rect x="309.741" y="14.5" width="5.12251" height="4.49997" fill="#454138"/>
<rect x="286.861" y="1.00006" width="10.245" height="2.99998" fill="#454138"/>
<rect x="327.841" y="1.00006" width="10.245" height="2.99998" fill="#454138"/>
<rect x="304.619" y="5.50002" width="5.12251" height="4.49997" fill="#454138"/>
<rect x="314.864" y="5.50002" width="5.12251" height="4.49997" fill="#454138"/>
<rect x="350.721" y="14.5" width="5.12251" height="4.49997" fill="#454138"/>
<rect x="327.841" y="1.00006" width="10.245" height="2.99998" fill="#454138"/>
<rect x="368.821" y="1.00006" width="10.245" height="2.99998" fill="#454138"/>
<rect x="345.599" y="5.50002" width="5.12251" height="4.49997" fill="#454138"/>
<rect x="355.844" y="5.50002" width="5.12251" height="4.49997" fill="#454138"/>
<rect x="391.701" y="14.5" width="5.12251" height="4.49997" fill="#454138"/>
<rect x="368.821" y="1.00006" width="10.245" height="2.99998" fill="#454138"/>
<rect x="409.801" y="1.00006" width="10.245" height="2.99998" fill="#454138"/>
<rect x="386.579" y="5.50002" width="5.12251" height="4.49997" fill="#454138"/>
<rect x="396.824" y="5.50002" width="5.12251" height="4.49997" fill="#454138"/>
<rect x="432.681" y="14.5" width="5.12251" height="4.49997" fill="#454138"/>
<rect x="409.801" y="1.00006" width="10.245" height="2.99998" fill="#454138"/>
<rect x="450.781" y="1.00006" width="10.245" height="2.99998" fill="#454138"/>
<rect x="427.559" y="5.50002" width="5.12251" height="4.49997" fill="#454138"/>
<rect x="437.804" y="5.50002" width="5.12251" height="4.49997" fill="#454138"/>
<rect x="473.661" y="14.5" width="5.12251" height="4.49997" fill="#454138"/>
<rect x="450.781" y="1.00006" width="10.245" height="2.99998" fill="#454138"/>
<rect x="491.761" y="1.00006" width="10.245" height="2.99998" fill="#454138"/>
<rect x="468.539" y="5.50002" width="5.12251" height="4.49997" fill="#454138"/>
<rect x="478.784" y="5.50002" width="5.12251" height="4.49997" fill="#454138"/>
<rect x="514.642" y="14.5" width="5.12251" height="4.49997" fill="#454138"/>
<rect x="491.761" y="1.00006" width="10.245" height="2.99998" fill="#454138"/>
<rect x="532.741" y="1.00006" width="10.245" height="2.99998" fill="#454138"/>
<rect x="509.519" y="5.50002" width="5.12251" height="4.49997" fill="#454138"/>
<rect x="519.764" y="5.50002" width="5.12251" height="4.49997" fill="#454138"/>
<rect x="555.622" y="14.5" width="5.12251" height="4.49997" fill="#454138"/>
<rect x="532.741" y="1.00006" width="10.245" height="2.99998" fill="#454138"/>
<rect x="573.721" y="1.00006" width="10.245" height="2.99998" fill="#454138"/>
<rect x="550.499" y="5.50002" width="5.12251" height="4.49997" fill="#454138"/>
<rect x="560.744" y="5.50002" width="5.12251" height="4.49997" fill="#454138"/>
<rect x="596.602" y="14.5" width="5.12251" height="4.49997" fill="#454138"/>
<rect x="573.721" y="1.00006" width="10.245" height="2.99998" fill="#454138"/>
<rect x="614.701" y="1.00006" width="10.245" height="2.99998" fill="#454138"/>
<rect x="591.479" y="5.50002" width="5.12251" height="4.49997" fill="#454138"/>
<rect x="601.724" y="5.50002" width="5.12251" height="4.49997" fill="#454138"/>
<rect x="637.582" y="14.5" width="5.12251" height="4.49997" fill="#454138"/>
<rect x="614.701" y="1.00006" width="10.245" height="2.99998" fill="#454138"/>
<rect x="655.681" y="1.00006" width="10.245" height="2.99998" fill="#454138"/>
<rect x="632.459" y="5.50002" width="5.12251" height="4.49997" fill="#454138"/>
<rect x="642.704" y="5.50002" width="5.12251" height="4.49997" fill="#454138"/>
<rect x="678.562" y="14.5" width="5.12251" height="4.49997" fill="#454138"/>
<rect x="655.681" y="1.00006" width="10.245" height="2.99998" fill="#454138"/>
<rect x="696.661" y="1.00006" width="10.245" height="2.99998" fill="#454138"/>
<rect x="673.439" y="5.50002" width="5.12251" height="4.49997" fill="#454138"/>
<rect x="683.684" y="5.50002" width="5.12251" height="4.49997" fill="#454138"/>
<rect x="719.542" y="14.5" width="5.12251" height="4.49997" fill="#454138"/>
<rect x="696.662" y="1.00006" width="10.245" height="2.99998" fill="#454138"/>
<rect x="737.642" y="1.00006" width="10.245" height="2.99998" fill="#454138"/>
<rect x="714.419" y="5.50002" width="5.12251" height="4.49997" fill="#454138"/>
<rect x="724.664" y="5.50002" width="5.12251" height="4.49997" fill="#454138"/>
<rect x="760.522" y="14.5" width="5.12251" height="4.49997" fill="#454138"/>
<rect x="737.642" y="1.00006" width="10.245" height="2.99998" fill="#454138"/>
<rect x="778.621" y="1.00006" width="10.245" height="2.99998" fill="#454138"/>
<rect x="755.399" y="5.50002" width="5.12251" height="4.49997" fill="#454138"/>
<rect x="765.645" y="5.50002" width="5.12251" height="4.49997" fill="#454138"/>
<rect x="801.502" y="14.5" width="5.12251" height="4.49997" fill="#454138"/>
<rect x="778.622" y="1.00006" width="10.245" height="2.99998" fill="#454138"/>
<rect x="819.602" y="1.00006" width="10.245" height="2.99998" fill="#454138"/>
<rect x="796.38" y="5.50002" width="5.12251" height="4.49997" fill="#454138"/>
<rect x="806.625" y="5.50002" width="5.12251" height="4.49997" fill="#454138"/>
<rect x="842.482" y="14.5" width="5.12251" height="4.49997" fill="#454138"/>
<rect x="819.602" y="1.00006" width="10.245" height="2.99998" fill="#454138"/>
<rect x="860.582" y="1.00006" width="10.245" height="2.99998" fill="#454138"/>
<rect x="837.359" y="5.50002" width="5.12251" height="4.49997" fill="#454138"/>
<rect x="847.604" y="5.50002" width="5.12251" height="4.49997" fill="#454138"/>
<rect x="883.734" y="14.5" width="5.12251" height="4.49997" fill="#454138"/>
<rect x="860.853" y="1.00006" width="10.245" height="2.99998" fill="#454138"/>
<rect x="901.833" y="1.00006" width="10.245" height="2.99998" fill="#454138"/>
<rect x="878.611" y="5.50002" width="5.12251" height="4.49997" fill="#454138"/>
<rect x="888.856" y="5.50002" width="5.12251" height="4.49997" fill="#454138"/>
<rect x="924.875" y="14.5" width="5.12251" height="4.49997" fill="#454138"/>
<rect x="901.994" y="1.00006" width="10.245" height="2.99998" fill="#454138"/>
<rect x="942.975" y="1.00006" width="10.245" height="2.99998" fill="#454138"/>
<rect x="919.752" y="5.50002" width="5.12251" height="4.49997" fill="#454138"/>
<rect x="929.998" y="5.50002" width="5.12251" height="4.49997" fill="#454138"/>
<rect x="965.393" y="14.5" width="5.12251" height="4.49997" fill="#454138"/>
<rect x="942.513" y="1.00006" width="10.245" height="2.99998" fill="#454138"/>
<rect x="983.493" y="1.00006" width="10.245" height="2.99998" fill="#454138"/>
<rect x="960.271" y="5.50002" width="5.12251" height="4.49997" fill="#454138"/>
<rect x="970.516" y="5.50002" width="5.12251" height="4.49997" fill="#454138"/>
<rect x="1005.91" y="14.5" width="5.12251" height="4.49997" fill="#454138"/>
<rect x="983.031" y="1.00006" width="10.245" height="2.99998" fill="#454138"/>
<rect x="1024.01" y="1.00006" width="10.245" height="2.99998" fill="#454138"/>
<rect x="1000.79" y="5.50002" width="5.12251" height="4.49997" fill="#454138"/>
<rect x="1011.03" y="5.50002" width="5.12251" height="4.49997" fill="#454138"/>
<rect x="1047.05" y="14.5" width="5.12251" height="4.49997" fill="#454138"/>
<rect x="1024.17" y="1.00006" width="10.245" height="2.99998" fill="#454138"/>
<rect x="1065.15" y="1.00006" width="10.245" height="2.99998" fill="#454138"/>
<rect x="1041.93" y="5.50002" width="5.12251" height="4.49997" fill="#454138"/>
<rect x="1052.18" y="5.50002" width="5.12251" height="4.49997" fill="#454138"/>
<rect x="1087.57" y="14.5" width="5.12251" height="4.49997" fill="#454138"/>
<rect x="1064.69" y="1.00006" width="10.245" height="2.99998" fill="#454138"/>
<rect x="1105.67" y="1.00006" width="10.245" height="2.99998" fill="#454138"/>
<rect x="1082.45" y="5.50002" width="5.12251" height="4.49997" fill="#454138"/>
<rect x="1092.69" y="5.50002" width="5.12251" height="4.49997" fill="#454138"/>
<rect x="1128.71" y="14.5" width="5.12251" height="4.49997" fill="#454138"/>
<rect x="1105.83" y="1.00006" width="10.245" height="2.99998" fill="#454138"/>
<rect x="1146.81" y="1.00006" width="10.245" height="2.99998" fill="#454138"/>
<rect x="1123.59" y="5.50002" width="5.12251" height="4.49997" fill="#454138"/>
<rect x="1133.83" y="5.50002" width="5.12251" height="4.49997" fill="#454138"/>
<rect x="1169.69" y="14.5" width="5.12251" height="4.49997" fill="#454138"/>
<rect x="1146.81" y="1.00006" width="10.245" height="2.99998" fill="#454138"/>
<rect x="1187.79" y="1.00006" width="10.245" height="2.99998" fill="#454138"/>
<rect x="1164.57" y="5.50002" width="5.12251" height="4.49997" fill="#454138"/>
<rect x="1174.81" y="5.50002" width="5.12251" height="4.49997" fill="#454138"/>
<rect x="1210.67" y="14.5" width="5.12251" height="4.49997" fill="#454138"/>
<rect x="1187.79" y="1.00006" width="10.245" height="2.99998" fill="#454138"/>
<rect x="1228.77" y="1.00006" width="10.245" height="2.99998" fill="#454138"/>
<rect x="1205.55" y="5.50002" width="5.12251" height="4.49997" fill="#454138"/>
<rect x="1215.79" y="5.50002" width="5.12251" height="4.49997" fill="#454138"/>
<rect x="1251.65" y="14.5" width="5.12251" height="4.49997" fill="#454138"/>
<rect x="1228.77" y="1.00006" width="10.245" height="2.99998" fill="#454138"/>
<rect x="1269.75" y="1.00006" width="10.245" height="2.99998" fill="#454138"/>
<rect x="1246.53" y="5.50002" width="5.12251" height="4.49997" fill="#454138"/>
<rect x="1256.77" y="5.50002" width="5.12251" height="4.49997" fill="#454138"/>
<rect x="1292.9" y="14.5" width="5.12251" height="4.49997" fill="#454138"/>
<rect x="1270.02" y="1.00006" width="10.245" height="2.99998" fill="#454138"/>
<rect x="1311" y="1.00006" width="10.245" height="2.99998" fill="#454138"/>
<rect x="1287.78" y="5.50002" width="5.12251" height="4.49997" fill="#454138"/>
<rect x="1298.03" y="5.50002" width="5.12251" height="4.49997" fill="#454138"/>
<rect x="1334.05" y="14.5" width="5.12251" height="4.49997" fill="#454138"/>
<rect x="1311.16" y="1.00006" width="10.245" height="2.99998" fill="#454138"/>
<rect x="1352.15" y="1.00006" width="10.245" height="2.99998" fill="#454138"/>
<rect x="1328.92" y="5.50002" width="5.12251" height="4.49997" fill="#454138"/>
<rect x="1339.17" y="5.50002" width="5.12251" height="4.49997" fill="#454138"/>
<rect x="1374.56" y="14.5" width="5.12251" height="4.49997" fill="#454138"/>
<rect x="1351.68" y="1.00006" width="10.245" height="2.99998" fill="#454138"/>
<rect x="1392.66" y="1.00006" width="10.245" height="2.99998" fill="#454138"/>
<rect x="1369.44" y="5.50002" width="5.12251" height="4.49997" fill="#454138"/>
<rect x="1379.69" y="5.50002" width="5.12251" height="4.49997" fill="#454138"/>
<rect x="1415.08" y="14.5" width="5.12251" height="4.49997" fill="#454138"/>
<rect x="1392.2" y="1.00006" width="10.245" height="2.99998" fill="#454138"/>
<rect x="1433.18" y="1.00006" width="10.245" height="2.99998" fill="#454138"/>
<rect x="1409.96" y="5.50002" width="5.12251" height="4.49997" fill="#454138"/>
<rect x="1420.2" y="5.50002" width="5.12251" height="4.49997" fill="#454138"/>
<rect x="1456.22" y="14.5" width="5.12251" height="4.49997" fill="#454138"/>
<rect x="1433.34" y="1.00006" width="10.245" height="2.99998" fill="#454138"/>
<rect x="1474.32" y="1.00006" width="10.245" height="2.99998" fill="#454138"/>
<rect x="1451.1" y="5.50002" width="5.12251" height="4.49997" fill="#454138"/>
<rect x="1461.35" y="5.50002" width="5.12251" height="4.49997" fill="#454138"/>
<rect x="1496.74" y="14.5" width="5.12251" height="4.49997" fill="#454138"/>
<rect x="1473.86" y="1.00006" width="10.245" height="2.99998" fill="#454138"/>
<rect x="1514.84" y="1.00006" width="10.245" height="2.99998" fill="#454138"/>
<rect x="1491.62" y="5.50002" width="5.12251" height="4.49997" fill="#454138"/>
<rect x="1501.86" y="5.50002" width="5.12251" height="4.49997" fill="#454138"/>
<rect x="1537.63" y="14.5" width="5.12251" height="4.49997" fill="#454138"/>
<rect x="1514.75" y="1.00006" width="10.245" height="2.99998" fill="#454138"/>
<rect x="1555.73" y="1.00006" width="10.245" height="2.99998" fill="#454138"/>
<rect x="1532.51" y="5.50002" width="5.12251" height="4.49997" fill="#454138"/>
<rect x="1542.76" y="5.50002" width="5.12251" height="4.49997" fill="#454138"/>
<rect x="1578.61" y="14.5" width="5.12251" height="4.49997" fill="#454138"/>
<rect x="1555.73" y="1.00006" width="10.245" height="2.99998" fill="#454138"/>
<rect x="1596.71" y="1.00006" width="10.245" height="2.99998" fill="#454138"/>
<rect x="1573.49" y="5.50002" width="5.12251" height="4.49997" fill="#454138"/>
<rect x="1583.74" y="5.50002" width="5.12251" height="4.49997" fill="#454138"/>
<rect x="1619.59" y="14.5" width="5.12251" height="4.49997" fill="#454138"/>
<rect x="1596.71" y="1.00006" width="10.245" height="2.99998" fill="#454138"/>
<rect x="1637.69" y="1.00006" width="10.245" height="2.99998" fill="#454138"/>
<rect x="1614.47" y="5.50002" width="5.12251" height="4.49997" fill="#454138"/>
<rect x="1624.72" y="5.50002" width="5.12251" height="4.49997" fill="#454138"/>
<rect x="1660.57" y="14.5" width="5.12251" height="4.49997" fill="#454138"/>
<rect x="1637.69" y="1.00006" width="10.245" height="2.99998" fill="#454138"/>
<rect x="1678.67" y="1.00006" width="10.245" height="2.99998" fill="#454138"/>
<rect x="1655.45" y="5.50002" width="5.12251" height="4.49997" fill="#454138"/>
<rect x="1665.7" y="5.50002" width="5.12251" height="4.49997" fill="#454138"/>
<rect x="1701.82" y="14.5" width="5.12251" height="4.49997" fill="#454138"/>
<rect x="1678.94" y="1.00006" width="10.245" height="2.99998" fill="#454138"/>
<rect x="1719.92" y="1.00006" width="10.245" height="2.99998" fill="#454138"/>
<rect x="1696.7" y="5.50002" width="5.12251" height="4.49997" fill="#454138"/>
<rect x="1706.95" y="5.50002" width="5.12251" height="4.49997" fill="#454138"/>
<rect x="1742.97" y="14.5" width="5.12251" height="4.49997" fill="#454138"/>
<rect x="1720.09" y="1.00006" width="10.245" height="2.99998" fill="#454138"/>
<rect x="1761.07" y="1.00006" width="10.245" height="2.99998" fill="#454138"/>
<rect x="1737.84" y="5.50002" width="5.12251" height="4.49997" fill="#454138"/>
<rect x="1748.09" y="5.50002" width="5.12251" height="4.49997" fill="#454138"/>
<rect x="1783.48" y="14.5" width="5.12251" height="4.49997" fill="#454138"/>
<rect x="1760.6" y="1.00006" width="10.245" height="2.99998" fill="#454138"/>
<rect x="1801.58" y="1.00006" width="10.245" height="2.99998" fill="#454138"/>
<rect x="1778.36" y="5.50002" width="5.12251" height="4.49997" fill="#454138"/>
<rect x="1788.61" y="5.50002" width="5.12251" height="4.49997" fill="#454138"/>
<rect x="1824" y="14.5" width="5.12251" height="4.49997" fill="#454138"/>
<rect x="1801.12" y="1.00006" width="10.245" height="2.99998" fill="#454138"/>
<rect x="1842.1" y="1.00006" width="10.245" height="2.99998" fill="#454138"/>
<rect x="1818.88" y="5.50002" width="5.12251" height="4.49997" fill="#454138"/>
<rect x="1829.12" y="5.50002" width="5.12251" height="4.49997" fill="#454138"/>
<rect x="1865.14" y="14.5" width="5.12251" height="4.49997" fill="#454138"/>
<rect x="1842.26" y="1.00006" width="10.245" height="2.99998" fill="#454138"/>
<rect x="1883.24" y="1.00006" width="10.245" height="2.99998" fill="#454138"/>
<rect x="1860.02" y="5.50002" width="5.12251" height="4.49997" fill="#454138"/>
<rect x="1870.27" y="5.50002" width="5.12251" height="4.49997" fill="#454138"/>
<rect x="1905.66" y="14.5" width="5.12251" height="4.49997" fill="#454138"/>
<rect x="1882.78" y="1.00006" width="10.245" height="2.99998" fill="#454138"/>
<rect x="1923.76" y="1.00006" width="10.245" height="2.99998" fill="#454138"/>
<rect x="1900.54" y="5.50002" width="5.12251" height="4.49997" fill="#454138"/>
<rect x="1910.78" y="5.50002" width="5.12251" height="4.49997" fill="#454138"/>
<rect x="1947.18" y="14.5" width="5.12251" height="4.49997" fill="#454138"/>
<rect x="1924.3" y="1.00006" width="10.245" height="2.99998" fill="#454138"/>
<rect x="1965.28" y="1.00006" width="10.245" height="2.99998" fill="#454138"/>
<rect x="1942.05" y="5.50002" width="5.12251" height="4.49997" fill="#454138"/>
<rect x="1952.3" y="5.50002" width="5.12251" height="4.49997" fill="#454138"/>
<rect x="1988.64" y="14.5" width="5.12251" height="4.49997" fill="#454138"/>
<rect x="1965.76" y="1.00006" width="10.245" height="2.99998" fill="#454138"/>
<rect x="2006.74" y="1.00006" width="10.245" height="2.99998" fill="#454138"/>
<rect x="1983.51" y="5.50002" width="5.12251" height="4.49997" fill="#454138"/>
<rect x="1993.76" y="5.50002" width="5.12251" height="4.49997" fill="#454138"/>
<rect x="2029.62" y="14.5" width="5.12251" height="4.49997" fill="#454138"/>
<rect x="2006.74" y="1.00006" width="10.245" height="2.99998" fill="#454138"/>
<rect x="2047.72" y="1.00006" width="10.245" height="2.99998" fill="#454138"/>
<rect x="2024.49" y="5.50002" width="5.12251" height="4.49997" fill="#454138"/>
<rect x="2034.74" y="5.50002" width="5.12251" height="4.49997" fill="#454138"/>
<rect x="2070.6" y="14.5" width="5.12251" height="4.49997" fill="#454138"/>
<rect x="2047.72" y="1.00006" width="10.245" height="2.99998" fill="#454138"/>
<rect x="2088.7" y="1.00006" width="10.245" height="2.99998" fill="#454138"/>
<rect x="2065.47" y="5.50002" width="5.12251" height="4.49997" fill="#454138"/>
<rect x="2075.72" y="5.50002" width="5.12251" height="4.49997" fill="#454138"/>
<rect x="2111.58" y="14.5" width="5.12251" height="4.49997" fill="#454138"/>
<rect x="2088.7" y="1.00006" width="10.245" height="2.99998" fill="#454138"/>
<rect x="2129.68" y="1.00006" width="10.245" height="2.99998" fill="#454138"/>
<rect x="2106.45" y="5.50002" width="5.12251" height="4.49997" fill="#454138"/>
<rect x="2116.7" y="5.50002" width="5.12251" height="4.49997" fill="#454138"/>
<rect x="2152.83" y="14.5" width="5.12251" height="4.49997" fill="#454138"/>
<rect x="2129.95" y="1.00006" width="10.245" height="2.99998" fill="#454138"/>
<rect x="2170.93" y="1.00006" width="10.245" height="2.99998" fill="#454138"/>
<rect x="2147.71" y="5.50002" width="5.12251" height="4.49997" fill="#454138"/>
<rect x="2157.95" y="5.50002" width="5.12251" height="4.49997" fill="#454138"/>
<rect x="2193.97" y="14.5" width="5.12251" height="4.49997" fill="#454138"/>
<rect x="2171.09" y="1.00006" width="10.245" height="2.99998" fill="#454138"/>
<rect x="2212.07" y="1.00006" width="10.245" height="2.99998" fill="#454138"/>
<rect x="2188.85" y="5.50002" width="5.12251" height="4.49997" fill="#454138"/>
<rect x="2199.09" y="5.50002" width="5.12251" height="4.49997" fill="#454138"/>
<rect x="2234.49" y="14.5" width="5.12251" height="4.49997" fill="#454138"/>
<rect x="2211.61" y="1.00006" width="10.245" height="2.99998" fill="#454138"/>
<rect x="2252.59" y="1.00006" width="10.245" height="2.99998" fill="#454138"/>
<rect x="2229.36" y="5.50002" width="5.12251" height="4.49997" fill="#454138"/>
<rect x="2239.61" y="5.50002" width="5.12251" height="4.49997" fill="#454138"/>
<rect x="2275.01" y="14.5" width="5.12251" height="4.49997" fill="#454138"/>
<rect x="2252.12" y="1.00006" width="10.245" height="2.99998" fill="#454138"/>
<rect x="2293.1" y="1.00006" width="10.245" height="2.99998" fill="#454138"/>
<rect x="2269.88" y="5.50002" width="5.12251" height="4.49997" fill="#454138"/>
<rect x="2280.13" y="5.50002" width="5.12251" height="4.49997" fill="#454138"/>
<rect x="2316.15" y="14.5" width="5.12251" height="4.49997" fill="#454138"/>
<rect x="2293.27" y="1.00006" width="10.245" height="2.99998" fill="#454138"/>
<rect x="2334.25" y="1.00006" width="10.245" height="2.99998" fill="#454138"/>
<rect x="2311.02" y="5.50002" width="5.12251" height="4.49997" fill="#454138"/>
<rect x="2321.27" y="5.50002" width="5.12251" height="4.49997" fill="#454138"/>
<rect x="2356.67" y="14.5" width="5.12251" height="4.49997" fill="#454138"/>
<rect x="2333.78" y="1.00006" width="10.245" height="2.99998" fill="#454138"/>
<rect x="2374.76" y="1.00006" width="10.245" height="2.99998" fill="#454138"/>
<rect x="2351.54" y="5.50002" width="5.12251" height="4.49997" fill="#454138"/>
<rect x="2361.79" y="5.50002" width="5.12251" height="4.49997" fill="#454138"/>
<rect x="2397.56" y="14.5" width="5.12251" height="4.49997" fill="#454138"/>
<rect x="2374.68" y="1.00006" width="10.245" height="2.99998" fill="#454138"/>
<rect x="2415.66" y="1.00006" width="10.245" height="2.99998" fill="#454138"/>
<rect x="2392.43" y="5.50002" width="5.12251" height="4.49997" fill="#454138"/>
<rect x="2402.68" y="5.50002" width="5.12251" height="4.49997" fill="#454138"/>
<rect x="2438.54" y="14.5" width="5.12251" height="4.49997" fill="#454138"/>
<rect x="2415.66" y="1.00006" width="10.245" height="2.99998" fill="#454138"/>
<rect x="2456.64" y="1.00006" width="10.245" height="2.99998" fill="#454138"/>
<rect x="2433.41" y="5.50002" width="5.12251" height="4.49997" fill="#454138"/>
<rect x="2443.66" y="5.50002" width="5.12251" height="4.49997" fill="#454138"/>
<rect x="2479.52" y="14.5" width="5.12251" height="4.49997" fill="#454138"/>
<rect x="2456.64" y="1.00006" width="10.245" height="2.99998" fill="#454138"/>
<rect x="2497.62" y="1.00006" width="10.245" height="2.99998" fill="#454138"/>
<rect x="2474.39" y="5.50002" width="5.12251" height="4.49997" fill="#454138"/>
<rect x="2484.64" y="5.50002" width="5.12251" height="4.49997" fill="#454138"/>
<rect x="2520.5" y="14.5" width="5.12251" height="4.49997" fill="#454138"/>
<rect x="2497.62" y="1.00006" width="10.245" height="2.99998" fill="#454138"/>
<rect x="2538.6" y="1.00006" width="10.245" height="2.99998" fill="#454138"/>
<rect x="2515.37" y="5.50002" width="5.12251" height="4.49997" fill="#454138"/>
<rect x="2525.62" y="5.50002" width="5.12251" height="4.49997" fill="#454138"/>
<rect x="2561.75" y="14.5" width="5.12251" height="4.49997" fill="#454138"/>
<rect x="2538.87" y="1.00006" width="10.245" height="2.99998" fill="#454138"/>
<rect x="2579.85" y="1.00006" width="10.245" height="2.99998" fill="#454138"/>
<rect x="2556.63" y="5.50002" width="5.12251" height="4.49997" fill="#454138"/>
<rect x="2566.87" y="5.50002" width="5.12251" height="4.49997" fill="#454138"/>
<rect x="2602.89" y="14.5" width="5.12251" height="4.49997" fill="#454138"/>
<rect x="2580.01" y="1.00006" width="10.245" height="2.99998" fill="#454138"/>
<rect x="2620.99" y="1.00006" width="10.245" height="2.99998" fill="#454138"/>
<rect x="2597.77" y="5.50002" width="5.12251" height="4.49997" fill="#454138"/>
<rect x="2608.01" y="5.50002" width="5.12251" height="4.49997" fill="#454138"/>
<rect x="2643.41" y="14.5" width="5.12251" height="4.49997" fill="#454138"/>
<rect x="2620.53" y="1.00006" width="10.245" height="2.99998" fill="#454138"/>
<rect x="2661.51" y="1.00006" width="10.245" height="2.99998" fill="#454138"/>
<rect x="2638.29" y="5.50002" width="5.12251" height="4.49997" fill="#454138"/>
<rect x="2648.53" y="5.50002" width="5.12251" height="4.49997" fill="#454138"/>
<rect x="2683.93" y="14.5" width="5.12251" height="4.49997" fill="#454138"/>
<rect x="2661.05" y="1.00006" width="10.245" height="2.99998" fill="#454138"/>
<rect x="2702.03" y="1.00006" width="10.245" height="2.99998" fill="#454138"/>
<rect x="2678.8" y="5.50002" width="5.12251" height="4.49997" fill="#454138"/>
<rect x="2689.05" y="5.50002" width="5.12251" height="4.49997" fill="#454138"/>
<rect x="2725.07" y="14.5" width="5.12251" height="4.49997" fill="#454138"/>
<rect x="2702.19" y="1.00006" width="10.245" height="2.99998" fill="#454138"/>
<rect x="2743.17" y="1.00006" width="10.245" height="2.99998" fill="#454138"/>
<rect x="2719.95" y="5.50002" width="5.12251" height="4.49997" fill="#454138"/>
<rect x="2730.19" y="5.50002" width="5.12251" height="4.49997" fill="#454138"/>
<rect x="2765.59" y="14.5" width="5.12251" height="4.49997" fill="#454138"/>
<rect x="2742.71" y="1.00006" width="10.245" height="2.99998" fill="#454138"/>
<rect x="2783.69" y="1.00006" width="10.245" height="2.99998" fill="#454138"/>
<rect x="2760.46" y="5.50002" width="5.12251" height="4.49997" fill="#454138"/>
<rect x="2770.71" y="5.50002" width="5.12251" height="4.49997" fill="#454138"/>
<rect x="2807.1" y="14.5" width="5.12251" height="4.49997" fill="#454138"/>
<rect x="2784.22" y="1.00006" width="10.245" height="2.99998" fill="#454138"/>
<rect x="2825.2" y="1.00006" width="10.245" height="2.99998" fill="#454138"/>
<rect x="2801.98" y="5.50002" width="5.12251" height="4.49997" fill="#454138"/>
<rect x="2812.22" y="5.50002" width="5.12251" height="4.49997" fill="#454138"/>
<rect x="2848.04" y="14.5" width="5.12251" height="4.49997" fill="#454138"/>
<rect x="2825.16" y="1.00006" width="10.245" height="2.99998" fill="#454138"/>
<rect x="2866.14" y="1.00006" width="10.245" height="2.99998" fill="#454138"/>
<rect x="2842.91" y="5.50002" width="5.12251" height="4.49997" fill="#454138"/>
<rect x="2853.16" y="5.50002" width="5.12251" height="4.49997" fill="#454138"/>
<rect x="2889.18" y="14.5" width="5.12251" height="4.49997" fill="#454138"/>
<rect x="2866.3" y="1.00006" width="10.245" height="2.99998" fill="#454138"/>
<rect x="2907.28" y="1.00006" width="10.245" height="2.99998" fill="#454138"/>
<rect x="2884.06" y="5.50002" width="5.12251" height="4.49997" fill="#454138"/>
<rect x="2894.3" y="5.50002" width="5.12251" height="4.49997" fill="#454138"/>
<rect x="2929.7" y="14.5" width="5.12251" height="4.49997" fill="#454138"/>
<rect x="2906.82" y="1.00006" width="10.245" height="2.99998" fill="#454138"/>
<rect x="2947.8" y="1.00006" width="10.245" height="2.99998" fill="#454138"/>
<rect x="2924.57" y="5.50002" width="5.12251" height="4.49997" fill="#454138"/>
<rect x="2934.82" y="5.50002" width="5.12251" height="4.49997" fill="#454138"/>
<rect x="2971.21" y="14.5" width="5.12251" height="4.49997" fill="#454138"/>
<rect x="2948.33" y="1.00006" width="10.245" height="2.99998" fill="#454138"/>
<rect x="2989.31" y="1.00006" width="10.245" height="2.99998" fill="#454138"/>
<rect x="2966.09" y="5.50002" width="5.12251" height="4.49997" fill="#454138"/>
<rect x="2976.33" y="5.50002" width="5.12251" height="4.49997" fill="#454138"/>
<rect x="3011.88" y="14.4999" width="5.12251" height="4.49997" fill="#454138"/>
<rect x="2989" y="1" width="10.245" height="2.99998" fill="#454138"/>
<rect x="3029.98" y="1" width="10.245" height="2.99998" fill="#454138"/>
<rect x="3006.76" y="5.49995" width="5.12251" height="4.49997" fill="#454138"/>
<rect x="3017" y="5.49995" width="5.12251" height="4.49997" fill="#454138"/>
<rect x="3053.34" y="14.4999" width="5.12251" height="4.49997" fill="#454138"/>
<rect x="3030.46" y="1" width="10.245" height="2.99998" fill="#454138"/>
<rect x="3071.44" y="1" width="10.245" height="2.99998" fill="#454138"/>
<rect x="3048.22" y="5.49995" width="5.12251" height="4.49997" fill="#454138"/>
<rect x="3058.46" y="5.49995" width="5.12251" height="4.49997" fill="#454138"/>
<rect x="3094.32" y="14.4999" width="5.12251" height="4.49997" fill="#454138"/>
<rect x="3071.44" y="1" width="10.245" height="2.99998" fill="#454138"/>
<rect x="3112.42" y="1" width="10.245" height="2.99998" fill="#454138"/>
<rect x="3089.2" y="5.49995" width="5.12251" height="4.49997" fill="#454138"/>
<rect x="3099.44" y="5.49995" width="5.12251" height="4.49997" fill="#454138"/>
<rect x="3135.3" y="14.4999" width="5.12251" height="4.49997" fill="#454138"/>
<rect x="3112.42" y="1" width="10.245" height="2.99998" fill="#454138"/>
<rect x="3153.4" y="1" width="10.245" height="2.99998" fill="#454138"/>
<rect x="3130.18" y="5.49995" width="5.12251" height="4.49997" fill="#454138"/>
<rect x="3140.42" y="5.49995" width="5.12251" height="4.49997" fill="#454138"/>
<rect x="3176.28" y="14.4999" width="5.12251" height="4.49997" fill="#454138"/>
<rect x="3153.4" y="1" width="10.245" height="2.99998" fill="#454138"/>
<rect x="3194.38" y="1" width="10.245" height="2.99998" fill="#454138"/>
<rect x="3171.16" y="5.49995" width="5.12251" height="4.49997" fill="#454138"/>
<rect x="3181.4" y="5.49995" width="5.12251" height="4.49997" fill="#454138"/>
<rect x="3217.53" y="14.4999" width="5.12251" height="4.49997" fill="#454138"/>
<rect x="3194.65" y="1" width="10.245" height="2.99998" fill="#454138"/>
<rect x="3235.63" y="1" width="10.245" height="2.99998" fill="#454138"/>
<rect x="3212.41" y="5.49995" width="5.12251" height="4.49997" fill="#454138"/>
<rect x="3222.65" y="5.49995" width="5.12251" height="4.49997" fill="#454138"/>
<rect x="3258.67" y="14.4999" width="5.12251" height="4.49997" fill="#454138"/>
<rect x="3235.79" y="1" width="10.245" height="2.99998" fill="#454138"/>
<rect x="3276.77" y="1" width="10.245" height="2.99998" fill="#454138"/>
<rect x="3253.55" y="5.49995" width="5.12251" height="4.49997" fill="#454138"/>
<rect x="3263.8" y="5.49995" width="5.12251" height="4.49997" fill="#454138"/>
<rect x="3299.19" y="14.4999" width="5.12251" height="4.49997" fill="#454138"/>
<rect x="3276.31" y="1" width="10.245" height="2.99998" fill="#454138"/>
<rect x="3317.29" y="1" width="10.245" height="2.99998" fill="#454138"/>
<rect x="3294.07" y="5.49995" width="5.12251" height="4.49997" fill="#454138"/>
<rect x="3304.31" y="5.49995" width="5.12251" height="4.49997" fill="#454138"/>
<rect x="3339.71" y="14.4999" width="5.12251" height="4.49997" fill="#454138"/>
<rect x="3316.83" y="1" width="10.245" height="2.99998" fill="#454138"/>
<rect x="3357.81" y="1" width="10.245" height="2.99998" fill="#454138"/>
<rect x="3334.59" y="5.49995" width="5.12251" height="4.49997" fill="#454138"/>
<rect x="3344.83" y="5.49995" width="5.12251" height="4.49997" fill="#454138"/>
<rect x="3380.85" y="14.4999" width="5.12251" height="4.49997" fill="#454138"/>
<rect x="3357.97" y="1" width="10.245" height="2.99998" fill="#454138"/>
<rect x="3398.95" y="1" width="10.245" height="2.99998" fill="#454138"/>
<rect x="3375.73" y="5.49995" width="5.12251" height="4.49997" fill="#454138"/>
<rect x="3385.97" y="5.49995" width="5.12251" height="4.49997" fill="#454138"/>
<rect x="3421.37" y="14.4999" width="5.12251" height="4.49997" fill="#454138"/>
<rect x="3398.49" y="1" width="10.245" height="2.99998" fill="#454138"/>
<rect x="3439.47" y="1" width="10.245" height="2.99998" fill="#454138"/>
<rect x="3416.25" y="5.49995" width="5.12251" height="4.49997" fill="#454138"/>
<rect x="3426.49" y="5.49995" width="5.12251" height="4.49997" fill="#454138"/>
<rect x="3462.26" y="14.4999" width="5.12251" height="4.49997" fill="#454138"/>
<rect x="3439.38" y="1" width="10.245" height="2.99998" fill="#454138"/>
<rect x="3480.36" y="1" width="10.245" height="2.99998" fill="#454138"/>
<rect x="3457.14" y="5.49995" width="5.12251" height="4.49997" fill="#454138"/>
<rect x="3467.38" y="5.49995" width="5.12251" height="4.49997" fill="#454138"/>
<rect x="3503.24" y="14.4999" width="5.12251" height="4.49997" fill="#454138"/>
<rect x="3480.36" y="1" width="10.245" height="2.99998" fill="#454138"/>
<rect x="3521.34" y="1" width="10.245" height="2.99998" fill="#454138"/>
<rect x="3498.12" y="5.49995" width="5.12251" height="4.49997" fill="#454138"/>
<rect x="3508.36" y="5.49995" width="5.12251" height="4.49997" fill="#454138"/>
<rect x="3544.22" y="14.4999" width="5.12251" height="4.49997" fill="#454138"/>
<rect x="3521.34" y="1" width="10.245" height="2.99998" fill="#454138"/>
<rect x="3562.32" y="1" width="10.245" height="2.99998" fill="#454138"/>
<rect x="3539.1" y="5.49995" width="5.12251" height="4.49997" fill="#454138"/>
<rect x="3549.34" y="5.49995" width="5.12251" height="4.49997" fill="#454138"/>
<rect x="3585.2" y="14.4999" width="5.12251" height="4.49997" fill="#454138"/>
<rect x="3562.32" y="1" width="10.245" height="2.99998" fill="#454138"/>
<rect x="3603.3" y="1" width="10.245" height="2.99998" fill="#454138"/>
<rect x="3580.08" y="5.49995" width="5.12251" height="4.49997" fill="#454138"/>
<rect x="3590.32" y="5.49995" width="5.12251" height="4.49997" fill="#454138"/>
<rect x="3626.45" y="14.4999" width="5.12251" height="4.49997" fill="#454138"/>
<rect x="3603.57" y="1" width="10.245" height="2.99998" fill="#454138"/>
<rect x="3644.55" y="1" width="10.245" height="2.99998" fill="#454138"/>
<rect x="3621.33" y="5.49995" width="5.12251" height="4.49997" fill="#454138"/>
<rect x="3631.57" y="5.49995" width="5.12251" height="4.49997" fill="#454138"/>
<rect x="3667.59" y="14.4999" width="5.12251" height="4.49997" fill="#454138"/>
<rect x="3644.71" y="1" width="10.245" height="2.99998" fill="#454138"/>
<rect x="3685.69" y="1" width="10.245" height="2.99998" fill="#454138"/>
<rect x="3662.47" y="5.49995" width="5.12251" height="4.49997" fill="#454138"/>
<rect x="3672.72" y="5.49995" width="5.12251" height="4.49997" fill="#454138"/>
<rect x="3708.11" y="14.4999" width="5.12251" height="4.49997" fill="#454138"/>
<rect x="3685.23" y="1" width="10.245" height="2.99998" fill="#454138"/>
<rect x="3726.21" y="1" width="10.245" height="2.99998" fill="#454138"/>
<rect x="3702.99" y="5.49995" width="5.12251" height="4.49997" fill="#454138"/>
<rect x="3713.23" y="5.49995" width="5.12251" height="4.49997" fill="#454138"/>
<rect x="3748.63" y="14.4999" width="5.12251" height="4.49997" fill="#454138"/>
<rect x="3725.75" y="1" width="10.245" height="2.99998" fill="#454138"/>
<rect x="3766.73" y="1" width="10.245" height="2.99998" fill="#454138"/>
<rect x="3743.51" y="5.49995" width="5.12251" height="4.49997" fill="#454138"/>
<rect x="3753.75" y="5.49995" width="5.12251" height="4.49997" fill="#454138"/>
<rect x="3789.77" y="14.4999" width="5.12251" height="4.49997" fill="#454138"/>
<rect x="3766.89" y="1" width="10.245" height="2.99998" fill="#454138"/>
<rect x="3807.87" y="1" width="10.245" height="2.99998" fill="#454138"/>
<rect x="3784.65" y="5.49995" width="5.12251" height="4.49997" fill="#454138"/>
<rect x="3794.89" y="5.49995" width="5.12251" height="4.49997" fill="#454138"/>
<rect x="3830.29" y="14.4999" width="5.12251" height="4.49997" fill="#454138"/>
<rect x="3807.41" y="1" width="10.245" height="2.99998" fill="#454138"/>
<rect x="3848.39" y="1" width="10.245" height="2.99998" fill="#454138"/>
<rect x="3825.17" y="5.49995" width="5.12251" height="4.49997" fill="#454138"/>
<rect x="3835.41" y="5.49995" width="5.12251" height="4.49997" fill="#454138"/>
<rect x="3871.8" y="14.4999" width="5.12251" height="4.49997" fill="#454138"/>
<rect x="3848.92" y="1" width="10.245" height="2.99998" fill="#454138"/>
<rect x="3889.9" y="1" width="10.245" height="2.99998" fill="#454138"/>
<rect x="3866.68" y="5.49995" width="5.12251" height="4.49997" fill="#454138"/>
<rect x="3876.93" y="5.49995" width="5.12251" height="4.49997" fill="#454138"/>
<rect x="3912.74" y="14.4999" width="5.12251" height="4.49997" fill="#454138"/>
<rect x="3889.86" y="1" width="10.245" height="2.99998" fill="#454138"/>
<rect x="3930.84" y="1" width="10.245" height="2.99998" fill="#454138"/>
<rect x="3907.62" y="5.49995" width="5.12251" height="4.49997" fill="#454138"/>
<rect x="3917.86" y="5.49995" width="5.12251" height="4.49997" fill="#454138"/>
<rect x="3953.88" y="14.4999" width="5.12251" height="4.49997" fill="#454138"/>
<rect x="3931" y="1" width="10.245" height="2.99998" fill="#454138"/>
<rect x="3971.98" y="1" width="10.245" height="2.99998" fill="#454138"/>
<rect x="3948.76" y="5.49995" width="5.12251" height="4.49997" fill="#454138"/>
<rect x="3959" y="5.49995" width="5.12251" height="4.49997" fill="#454138"/>
<rect x="3994.4" y="14.4999" width="5.12251" height="4.49997" fill="#454138"/>
<rect x="3971.52" y="1" width="10.245" height="2.99998" fill="#454138"/>
<rect x="4012.5" y="1" width="10.245" height="2.99998" fill="#454138"/>
<rect x="3989.28" y="5.49995" width="5.12251" height="4.49997" fill="#454138"/>
<rect x="3999.52" y="5.49995" width="5.12251" height="4.49997" fill="#454138"/>
<rect x="4035.92" y="14.4999" width="5.12251" height="4.49997" fill="#454138"/>
<rect x="4013.03" y="1" width="10.245" height="2.99998" fill="#454138"/>
<rect x="4054.02" y="1" width="10.245" height="2.99998" fill="#454138"/>
<rect x="4030.79" y="5.49995" width="5.12251" height="4.49997" fill="#454138"/>
<rect x="4041.04" y="5.49995" width="5.12251" height="4.49997" fill="#454138"/>
<rect x="4076.88" y="14.4999" width="5.12251" height="4.49997" fill="#454138"/>
<rect x="4054" y="1" width="10.245" height="2.99998" fill="#454138"/>
<rect x="4094.98" y="1" width="10.245" height="2.99998" fill="#454138"/>
<rect x="4071.76" y="5.49995" width="5.12251" height="4.49997" fill="#454138"/>
<rect x="4082" y="5.49995" width="5.12251" height="4.49997" fill="#454138"/>
<rect x="4118.13" y="14.4999" width="5.12251" height="4.49997" fill="#454138"/>
<rect x="4095.25" y="1" width="10.245" height="2.99998" fill="#454138"/>
<rect x="4136.23" y="1" width="10.245" height="2.99998" fill="#454138"/>
<rect x="4113.01" y="5.49995" width="5.12251" height="4.49997" fill="#454138"/>
<rect x="4123.25" y="5.49995" width="5.12251" height="4.49997" fill="#454138"/>
<rect x="4159.27" y="14.4999" width="5.12251" height="4.49997" fill="#454138"/>
<rect x="4136.39" y="1" width="10.245" height="2.99998" fill="#454138"/>
<rect x="4177.37" y="1" width="10.245" height="2.99998" fill="#454138"/>
<rect x="4154.15" y="5.49995" width="5.12251" height="4.49997" fill="#454138"/>
<rect x="4164.4" y="5.49995" width="5.12251" height="4.49997" fill="#454138"/>
<rect x="4199.79" y="14.4999" width="5.12251" height="4.49997" fill="#454138"/>
<rect x="4176.91" y="1" width="10.245" height="2.99998" fill="#454138"/>
<rect x="4217.89" y="1" width="10.245" height="2.99998" fill="#454138"/>
<rect x="4194.67" y="5.49995" width="5.12251" height="4.49997" fill="#454138"/>
<rect x="4204.91" y="5.49995" width="5.12251" height="4.49997" fill="#454138"/>
<rect x="4240.31" y="14.4999" width="5.12251" height="4.49997" fill="#454138"/>
<rect x="4217.43" y="1" width="10.245" height="2.99998" fill="#454138"/>
<rect x="4258.41" y="1" width="10.245" height="2.99998" fill="#454138"/>
<rect x="4235.19" y="5.49995" width="5.12251" height="4.49997" fill="#454138"/>
<rect x="4245.43" y="5.49995" width="5.12251" height="4.49997" fill="#454138"/>
<rect x="4281.45" y="14.4999" width="5.12251" height="4.49997" fill="#454138"/>
<rect x="4258.57" y="1" width="10.245" height="2.99998" fill="#454138"/>
<rect x="4299.55" y="1" width="10.245" height="2.99998" fill="#454138"/>
<rect x="4276.33" y="5.49995" width="5.12251" height="4.49997" fill="#454138"/>
<rect x="4286.57" y="5.49995" width="5.12251" height="4.49997" fill="#454138"/>
<rect x="4321.97" y="14.4999" width="5.12251" height="4.49997" fill="#454138"/>
<rect x="4299.09" y="1" width="10.245" height="2.99998" fill="#454138"/>
<rect x="4340.07" y="1" width="10.245" height="2.99998" fill="#454138"/>
<rect x="4316.85" y="5.49995" width="5.12251" height="4.49997" fill="#454138"/>
<rect x="4327.09" y="5.49995" width="5.12251" height="4.49997" fill="#454138"/>
<rect x="4363.49" y="14.4999" width="5.12251" height="4.49997" fill="#454138"/>
<rect x="4340.6" y="1" width="10.245" height="2.99998" fill="#454138"/>
<rect x="4381.58" y="1" width="10.245" height="2.99998" fill="#454138"/>
<rect x="4358.36" y="5.49995" width="5.12251" height="4.49997" fill="#454138"/>
<rect x="4368.61" y="5.49995" width="5.12251" height="4.49997" fill="#454138"/>
<rect x="4404.42" y="14.4999" width="5.12251" height="4.49997" fill="#454138"/>
<rect x="4381.54" y="1" width="10.245" height="2.99998" fill="#454138"/>
<rect x="4422.52" y="1" width="10.245" height="2.99998" fill="#454138"/>
<rect x="4399.3" y="5.49995" width="5.12251" height="4.49997" fill="#454138"/>
<rect x="4409.54" y="5.49995" width="5.12251" height="4.49997" fill="#454138"/>
<rect x="4445.56" y="14.4999" width="5.12251" height="4.49997" fill="#454138"/>
<rect x="4422.68" y="1" width="10.245" height="2.99998" fill="#454138"/>
<rect x="4463.66" y="1" width="10.245" height="2.99998" fill="#454138"/>
<rect x="4440.44" y="5.49995" width="5.12251" height="4.49997" fill="#454138"/>
<rect x="4450.68" y="5.49995" width="5.12251" height="4.49997" fill="#454138"/>
<rect x="4486.08" y="14.4999" width="5.12251" height="4.49997" fill="#454138"/>
<rect x="4463.2" y="1" width="10.245" height="2.99998" fill="#454138"/>
<rect x="4504.18" y="1" width="10.245" height="2.99998" fill="#454138"/>
<rect x="4480.96" y="5.49995" width="5.12251" height="4.49997" fill="#454138"/>
<rect x="4491.2" y="5.49995" width="5.12251" height="4.49997" fill="#454138"/>
<rect x="4527.6" y="14.4999" width="5.12251" height="4.49997" fill="#454138"/>
<rect x="4504.71" y="1" width="10.245" height="2.99998" fill="#454138"/>
<rect x="4545.7" y="1" width="10.245" height="2.99998" fill="#454138"/>
<rect x="4522.47" y="5.49995" width="5.12251" height="4.49997" fill="#454138"/>
<rect x="4532.72" y="5.49995" width="5.12251" height="4.49997" fill="#454138"/>
<rect x="4568.88" y="14.4999" width="5.12251" height="4.49997" fill="#454138"/>
<rect x="4546" y="1" width="10.245" height="2.99998" fill="#454138"/>
<rect x="4586.98" y="1" width="10.245" height="2.99998" fill="#454138"/>
<rect x="4563.76" y="5.49995" width="5.12251" height="4.49997" fill="#454138"/>
<rect x="4574" y="5.49995" width="5.12251" height="4.49997" fill="#454138"/>
<rect x="4610.4" y="14.4999" width="5.12251" height="4.49997" fill="#454138"/>
<rect x="4587.52" y="1" width="10.245" height="2.99998" fill="#454138"/>
<rect x="4628.5" y="1" width="10.245" height="2.99998" fill="#454138"/>
<rect x="4605.27" y="5.49995" width="5.12251" height="4.49997" fill="#454138"/>
<rect x="4615.52" y="5.49995" width="5.12251" height="4.49997" fill="#454138"/>
<rect x="4651.33" y="14.4999" width="5.12251" height="4.49997" fill="#454138"/>
<rect x="4628.45" y="1" width="10.245" height="2.99998" fill="#454138"/>
<rect x="4669.43" y="1" width="10.245" height="2.99998" fill="#454138"/>
<rect x="4646.21" y="5.49995" width="5.12251" height="4.49997" fill="#454138"/>
<rect x="4656.45" y="5.49995" width="5.12251" height="4.49997" fill="#454138"/>
<rect x="4692.47" y="14.4999" width="5.12251" height="4.49997" fill="#454138"/>
<rect x="4669.59" y="1" width="10.245" height="2.99998" fill="#454138"/>
<rect x="4710.57" y="1" width="10.245" height="2.99998" fill="#454138"/>
<rect x="4687.35" y="5.49995" width="5.12251" height="4.49997" fill="#454138"/>
<rect x="4697.6" y="5.49995" width="5.12251" height="4.49997" fill="#454138"/>
<rect x="4732.99" y="14.4999" width="5.12251" height="4.49997" fill="#454138"/>
<rect x="4710.11" y="1" width="10.245" height="2.99998" fill="#454138"/>
<rect x="4751.09" y="1" width="10.245" height="2.99998" fill="#454138"/>
<rect x="4727.87" y="5.49995" width="5.12251" height="4.49997" fill="#454138"/>
<rect x="4738.11" y="5.49995" width="5.12251" height="4.49997" fill="#454138"/>
<rect x="4774.51" y="14.4999" width="5.12251" height="4.49997" fill="#454138"/>
<rect x="4751.63" y="1" width="10.245" height="2.99998" fill="#454138"/>
<rect x="4792.61" y="1" width="10.245" height="2.99998" fill="#454138"/>
<rect x="4769.39" y="5.49995" width="5.12251" height="4.49997" fill="#454138"/>
<rect x="4779.63" y="5.49995" width="5.12251" height="4.49997" fill="#454138"/>
</svg>
