<?xml version="1.0" standalone="no"?>
<!DOCTYPE svg PUBLIC "-//W3C//DTD SVG 20010904//EN"
 "http://www.w3.org/TR/2001/REC-SVG-20010904/DTD/svg10.dtd">
<svg version="1.0" xmlns="http://www.w3.org/2000/svg"
 width="669.000000pt" height="800.000000pt" viewBox="0 0 669.000000 800.000000"
 preserveAspectRatio="xMidYMid meet">

<g transform="translate(0.000000,800.000000) scale(0.100000,-0.100000)"
fill="#000000" stroke="none">
<path d="M2378 7838 c-3 -13 -22 -86 -42 -162 -105 -402 -173 -858 -196 -1316
-13 -261 -38 -971 -42 -1166 -3 -158 0 -168 60 -179 77 -14 163 -77 225 -165
17 -24 18 -24 30 -6 51 79 141 147 222 167 28 7 54 16 59 21 12 9 11 63 -14
713 -23 590 -31 713 -66 1015 -52 444 -109 756 -185 1003 -31 98 -43 115 -51
75z m56 -293 c45 -177 106 -597 141 -965 8 -91 24 -390 35 -665 11 -275 23
-565 26 -645 l6 -145 -107 -83 c-59 -46 -113 -86 -121 -89 -12 -4 -14 193 -14
1348 0 744 2 1350 5 1348 2 -3 15 -50 29 -104z"/>
<path d="M4240 7733 c-92 -337 -165 -760 -199 -1158 -11 -126 -33 -643 -52
-1197 -7 -226 -7 -333 0 -346 6 -11 26 -23 48 -27 61 -11 125 -50 181 -108 28
-31 52 -61 52 -66 0 -6 7 -11 15 -11 8 0 15 4 15 9 0 5 22 34 49 63 51 56 128
101 194 113 21 4 41 14 44 22 6 15 -4 303 -32 993 -29 691 -111 1287 -232
1703 -21 70 -41 127 -44 127 -4 0 -21 -53 -39 -117z m84 -213 c32 -130 58
-287 91 -540 51 -400 64 -575 90 -1275 8 -220 18 -443 21 -495 l5 -95 -102
-80 c-127 -99 -129 -101 -140 -84 -12 19 -12 2696 0 2684 5 -6 21 -57 35 -115z"/>
<path d="M3316 6949 c-150 -484 -206 -968 -206 -1797 l0 -343 -37 3 -37 3 -32
255 c-27 217 -82 512 -102 545 -16 26 -122 -521 -122 -630 0 -14 15 -28 45
-44 65 -34 121 -99 139 -162 19 -62 21 -173 5 -252 -13 -66 -24 -70 -90 -36
-23 11 -60 21 -82 22 -42 2 -42 2 -45 -37 -2 -27 5 -55 25 -93 27 -55 97 -123
124 -123 38 0 149 126 149 168 0 20 25 36 41 26 5 -3 9 -61 9 -130 0 -126 8
-164 36 -164 47 0 137 -73 181 -147 14 -24 29 -43 33 -43 4 0 13 14 19 30 16
47 106 135 161 159 l50 22 0 120 c0 168 18 198 64 105 29 -59 115 -146 144
-146 11 0 40 23 66 50 77 82 107 177 65 203 -12 8 -34 5 -80 -12 -111 -38
-106 -39 -119 10 -19 69 -16 215 5 278 20 60 72 119 134 150 22 12 42 25 45
29 13 22 -63 468 -106 617 l-11 40 -13 -50 c-39 -145 -66 -294 -94 -513 -16
-133 -30 -245 -30 -247 0 -3 -13 -5 -30 -5 l-30 0 0 338 c0 544 -38 974 -126
1419 -27 141 -99 426 -113 451 -7 12 -16 -6 -35 -69z m63 -219 c48 -195 111
-649 136 -975 19 -256 34 -1515 17 -1515 -5 0 -47 -34 -91 -76 -45 -42 -84
-74 -87 -71 -3 3 -8 621 -11 1374 -4 931 -2 1365 5 1358 5 -5 19 -48 31 -95z"/>
<path d="M2606 4895 c-53 -19 -85 -44 -120 -93 -24 -33 -30 -55 -35 -115 -7
-77 -21 -107 -52 -107 -31 0 -49 28 -49 79 0 207 -212 311 -377 185 -54 -41
-104 -163 -88 -213 5 -17 16 -19 88 -18 103 1 167 -24 230 -92 42 -45 102
-151 95 -169 -1 -5 -28 -29 -58 -54 -52 -43 -55 -47 -53 -89 2 -58 55 -214
106 -314 47 -91 128 -201 214 -292 l58 -63 -86 -88 c-112 -116 -153 -194 -147
-281 10 -140 138 -219 263 -162 63 28 69 40 46 94 -57 134 -46 227 40 331 4 4
78 -25 164 -65 119 -54 162 -70 174 -62 19 11 56 116 48 137 -3 7 -36 24 -74
36 -167 53 -319 168 -467 353 -50 63 -128 215 -147 288 -17 64 -8 81 38 77 36
-3 38 -5 63 -73 81 -219 195 -352 420 -491 72 -45 154 -79 168 -71 5 4 5 29 1
59 -4 29 -8 60 -8 69 -1 10 -35 36 -84 63 -220 124 -330 266 -366 476 l-16 95
-55 19 c-30 11 -56 20 -58 22 -9 6 56 113 94 154 66 71 125 93 238 88 l91 -3
3 54 c6 103 -70 205 -175 237 -57 17 -77 17 -127 -1z"/>
<path d="M3960 4901 c-118 -36 -208 -166 -185 -269 l5 -27 108 0 c99 0 111 -2
154 -28 26 -15 62 -46 81 -70 34 -42 77 -117 77 -136 0 -5 -24 -17 -52 -27
-61 -20 -68 -27 -68 -73 0 -18 -7 -60 -16 -94 -46 -178 -181 -334 -371 -431
-62 -31 -69 -43 -79 -124 -5 -49 -4 -62 7 -62 30 1 128 49 212 104 191 127
295 254 368 453 28 76 36 85 73 81 30 -3 31 -4 30 -53 -3 -106 -110 -289 -251
-427 -146 -144 -203 -182 -346 -233 l-92 -32 3 -34 c5 -41 32 -99 52 -112 11
-6 58 11 169 62 176 81 169 81 216 -12 33 -66 32 -127 -1 -223 -14 -42 -23
-81 -21 -88 3 -8 25 -23 49 -35 164 -79 324 75 259 249 -25 66 -103 172 -172
234 l-51 46 72 77 c87 94 159 193 207 287 45 89 103 266 103 315 0 35 -5 42
-57 81 -32 24 -60 44 -61 46 -11 8 65 140 103 179 67 68 120 89 228 88 l87 -1
0 46 c0 90 -70 192 -156 228 -19 8 -58 14 -87 14 -131 0 -227 -112 -227 -266
0 -42 -33 -64 -69 -45 -17 10 -21 21 -21 65 0 116 -65 212 -163 241 -55 16
-78 17 -117 6z"/>
<path d="M2965 4096 c-5 -2 -23 -7 -38 -10 -27 -6 -117 -80 -117 -96 0 -4 19
-10 43 -14 86 -13 140 -38 187 -85 90 -90 135 -238 128 -419 -4 -118 -25 -182
-76 -235 -23 -24 -32 -27 -60 -22 l-34 6 7 -33 c12 -53 21 -71 50 -98 23 -22
35 -25 101 -25 51 0 74 -4 74 -12 0 -30 -46 -131 -72 -156 -24 -24 -35 -28
-66 -25 -20 3 -45 8 -54 12 -21 9 -35 -15 -39 -69 l-4 -39 73 -13 c118 -19
116 -17 180 -223 36 -116 92 -244 102 -233 14 15 83 199 114 302 36 121 50
136 140 151 95 15 95 16 89 58 -9 60 -19 73 -49 62 -74 -28 -125 4 -162 103
-31 83 -32 82 40 79 94 -5 143 33 163 126 7 33 7 33 -27 27 -28 -5 -37 -2 -60
22 -51 53 -72 117 -76 235 -5 130 14 227 64 328 54 108 122 155 252 175 23 4
42 10 42 14 0 11 -72 77 -100 92 -41 21 -159 16 -213 -10 -89 -43 -166 -154
-167 -239 0 -55 -38 -99 -70 -82 -27 15 -40 42 -40 87 -1 79 -80 192 -163 232
-39 19 -140 35 -162 27z"/>
<path d="M1588 3981 c-83 -17 -110 -63 -111 -191 -1 -47 7 -91 30 -160 95
-288 82 -467 -42 -609 -29 -33 -30 -38 -27 -117 1 -46 -2 -85 -6 -88 -5 -3
-164 -55 -353 -116 -189 -61 -427 -138 -528 -171 -101 -33 -185 -58 -187 -56
-2 2 234 146 525 320 626 375 576 328 575 537 0 117 -2 132 -38 235 -20 61
-40 133 -42 160 -9 79 -13 84 -36 40 -34 -64 -35 -147 -4 -252 32 -108 45
-221 27 -233 -15 -8 -115 11 -149 29 -29 15 0 39 -420 -342 -190 -171 -358
-323 -373 -337 -159 -141 -327 -296 -325 -298 2 -1 72 20 157 47 135 43 316
101 1080 342 l167 53 5 48 c8 63 12 68 51 68 88 0 250 -60 329 -122 68 -54
167 -199 167 -246 0 -30 -54 -72 -120 -93 -34 -10 -70 -19 -79 -19 -18 0 -25
-19 -226 -645 -48 -148 -140 -433 -205 -633 -64 -199 -115 -362 -111 -361 3 0
31 31 62 67 31 37 284 325 561 641 l505 574 -19 49 c-10 27 -21 76 -25 107 -5
50 -3 61 15 79 51 51 317 71 435 31 119 -39 277 -158 277 -207 0 -34 -72 -122
-143 -174 -16 -12 -11 -41 78 -473 53 -253 125 -602 161 -775 107 -516 122
-586 123 -564 1 12 60 304 131 650 72 346 154 739 181 874 28 135 52 252 54
260 2 9 -17 31 -47 55 -56 44 -108 116 -108 151 0 49 179 177 294 210 48 13
85 15 185 11 147 -6 226 -26 242 -61 13 -28 -2 -141 -25 -188 -17 -34 -18 -32
40 -98 17 -19 119 -134 225 -256 425 -484 481 -547 662 -752 103 -117 187
-209 187 -204 0 5 -54 175 -119 378 -66 203 -183 567 -262 810 l-142 441 -63
13 c-82 16 -154 62 -154 97 0 38 56 135 117 202 40 44 75 71 133 100 83 41
207 75 256 69 27 -3 30 -7 38 -59 l9 -56 161 -51 c266 -83 951 -300 1098 -348
75 -24 140 -44 143 -44 4 0 -17 21 -46 48 -51 45 -568 513 -849 767 -74 67
-149 134 -165 148 l-31 25 -54 -19 c-30 -10 -73 -18 -94 -19 l-39 0 6 78 c4
42 18 115 32 161 14 47 25 104 25 128 0 46 -36 153 -51 153 -5 0 -9 -21 -9
-46 0 -27 -17 -97 -42 -172 -37 -111 -43 -138 -43 -217 0 -75 4 -97 23 -132
12 -24 29 -43 37 -43 8 0 54 11 101 25 47 14 92 25 99 25 7 0 36 -19 63 -42
143 -124 812 -721 812 -725 0 -2 -33 13 -72 35 -40 22 -203 108 -363 192 -608
319 -644 340 -698 394 -125 124 -136 251 -45 541 50 160 37 289 -33 330 -52
30 -208 28 -269 -4 -54 -28 -130 -88 -130 -103 0 -6 20 -28 43 -49 93 -81 127
-229 92 -400 -23 -115 -78 -225 -172 -344 -169 -215 -223 -308 -244 -420 -11
-62 -5 -175 11 -206 10 -18 74 -42 229 -83 52 -14 98 -29 102 -33 8 -10 450
-1325 446 -1329 -5 -5 -835 1328 -852 1368 -45 110 -39 287 16 428 33 87 66
138 192 297 121 153 197 324 197 445 0 57 -32 147 -68 189 -25 30 -28 31 -84
26 -58 -5 -130 -38 -159 -73 -10 -12 -14 -44 -14 -109 0 -83 -3 -97 -33 -157
-33 -65 -33 -65 -17 -104 9 -21 19 -69 22 -105 5 -53 2 -74 -15 -113 -51 -115
-134 -175 -254 -184 -93 -6 -129 3 -186 48 -27 22 -56 40 -65 40 -8 0 -49 -16
-92 -36 -68 -31 -76 -38 -70 -57 3 -12 9 -52 12 -90 5 -56 3 -71 -12 -87 -19
-21 -113 -60 -144 -60 -39 0 -68 -37 -80 -102 -24 -126 -82 -271 -137 -345
-13 -17 -24 -36 -24 -41 0 -5 61 -67 135 -137 96 -90 135 -134 135 -150 0 -12
-27 -152 -60 -311 -34 -159 -104 -496 -156 -749 -52 -252 -97 -461 -99 -464
-3 -2 -5 397 -5 888 l0 893 -46 52 c-70 77 -136 237 -159 383 -8 52 -38 78
-97 87 -57 9 -120 45 -136 79 -13 26 -8 78 14 155 5 19 1 24 -26 33 -17 6 -53
22 -78 35 -26 13 -53 24 -60 24 -7 0 -38 -19 -69 -42 l-56 -43 -96 0 c-82 0
-103 4 -144 25 -130 66 -187 216 -138 359 l19 55 -31 60 c-28 54 -32 71 -33
151 -1 50 -2 96 -3 102 0 7 -25 29 -55 48 -68 46 -154 59 -188 29 -40 -36 -78
-133 -78 -199 0 -152 74 -303 254 -523 81 -100 121 -175 156 -289 22 -74 23
-93 8 -408 0 -16 18 -77 41 -134 22 -57 41 -109 41 -116 0 -8 -123 -153 -272
-323 -150 -170 -358 -406 -463 -524 -104 -119 -191 -215 -193 -213 -2 1 47 92
108 201 62 110 136 242 165 294 388 693 459 821 473 859 22 62 34 214 22 283
-20 114 -66 194 -233 408 -149 191 -203 333 -194 515 5 114 34 183 100 242 26
22 47 45 47 51 0 14 -78 75 -130 102 -49 25 -155 35 -222 21z"/>
</g>
</svg>
